<?xml version="1.0" standalone="no"?>
<!DOCTYPE svg PUBLIC "-//W3C//DTD SVG 1.1//EN" "http://www.w3.org/Graphics/SVG/1.1/DTD/svg11.dtd" >
<svg xmlns="http://www.w3.org/2000/svg" xmlns:xlink="http://www.w3.org/1999/xlink" version="1.1">
<metadata></metadata>
<defs>
<font id="krinkes_regular_personal_usRg" horiz-adv-x="864" >
<font-face units-per-em="2048" ascent="1536" descent="-512" />
<missing-glyph horiz-adv-x="382" />
<glyph unicode="&#xfb01;" horiz-adv-x="1093" d="M178 713q80 201 209 304t287 103q66 0 104.5 -29.5t53 -75.5t5 -104.5t-37.5 -113.5q-27 -51 -55.5 -85t-55 -53.5t-50.5 -27.5t-38 -8q-57 0 -74.5 47t6.5 112q31 74 81.5 116t111.5 42q10 0 27 -4q4 41 -13.5 67.5t-58.5 26.5t-80 -27.5t-75 -72.5t-65.5 -102.5 t-49.5 -114.5l-86 -213q6 0 11 -1t9 -1q162 -6 292 51t208 209q16 4 35 8q16 4 35.5 6t39.5 2q43 0 73 -10t43 -37t8 -70t-31 -108q-12 -31 -39 -87t-54 -110q-31 -66 -65 -135q-16 -41 4 -57.5t56 -9t77 38t68 85.5l34 -57q-20 -49 -56 -91t-80 -72.5t-94 -49t-99 -18.5 q-100 0 -139 65.5t14 194.5q10 25 33.5 70.5t49 97t47 96.5t32.5 68q4 8 5 16t3 16q-23 -51 -68 -88t-101.5 -62.5t-117.5 -39.5t-113 -17q8 -29 5 -71.5t-14 -93t-29.5 -105.5t-43.5 -106q-90 -188 -190 -286.5t-199 -98.5q-98 0 -138 66.5t13 193.5zM266 45 q41 82 60.5 150.5t21.5 116.5t-14.5 74t-46.5 24l-221 -535q-16 -39 -6 -57.5t38.5 -3t72.5 71t95 159.5zM1214 997q0 -51 -36.5 -88t-87.5 -37q-53 0 -90 37t-37 88t36.5 88t90.5 37q51 0 87.5 -37t36.5 -88z" />
<glyph horiz-adv-x="0" />
<glyph unicode="&#xd;" horiz-adv-x="382" />
<glyph horiz-adv-x="0" />
<glyph horiz-adv-x="0" />
<glyph unicode=" "  horiz-adv-x="382" />
<glyph unicode="&#x09;" horiz-adv-x="382" />
<glyph unicode="&#xa0;" horiz-adv-x="382" />
<glyph unicode="!" horiz-adv-x="534" d="M342 121q0 -55 -40 -95t-97 -40t-97 40t-40 95q0 57 39.5 97t97.5 40q57 0 97 -40t40 -97zM729 944q-41 -88 -98.5 -172t-115.5 -156.5t-108.5 -131t-76.5 -93.5h-72q57 117 97 232.5t65.5 210t39 157t19.5 72.5q25 51 78 69.5t107 -4.5q51 -25 70.5 -78t-5.5 -106z" />
<glyph unicode="&#x22;" horiz-adv-x="765" d="M535 895h-3q-12 -31 -36.5 -55.5t-57 -53t-71.5 -62.5t-80 -83l-72 29l74 225q-16 25 -17 66q0 57 40 97t98 40q41 0 73.5 -21.5t48.5 -56.5q16 35 49 56.5t74 21.5q57 0 97.5 -40t40.5 -97q0 -47 -21.5 -81t-57.5 -67t-83 -73t-99 -99l-71 29z" />
<glyph unicode="#" d="M815 866l-74 -170h101l-60 -141h-102l-51 -119h96l-59 -141h-97l-84 -195h-151l82 195h-113l-84 -195h-151l82 195h-107l59 141h109l51 119h-102l59 141h103l73 170h154l-74 -170h113l74 170h153zM362 436h115l51 119h-114z" />
<glyph unicode="$" horiz-adv-x="790" d="M616 1071q29 0 60 -6l43 125h69l-53 -146q74 -37 96.5 -117.5t-36.5 -181.5q-37 -66 -86.5 -88t-85.5 0q-37 23 -42.5 73t23.5 99q29 47 75 66.5t83 -2.5q2 35 -26.5 63.5t-88.5 38.5q-70 10 -131 -26.5t-88 -100.5q-31 -70 4 -135t115 -117q109 -66 156 -157.5 t-1 -212.5q-41 -96 -133 -170t-211 -96l-34 -105h-68l33 96q-16 0 -30.5 -1t-31.5 1l-34 -96h-68l37 109q-55 16 -91 53t-52.5 84t-12.5 101t31 104q31 59 81 92t95 8q37 -20 42 -71.5t-24 -98.5q-27 -45 -68.5 -64.5t-78.5 -5.5q-6 -39 37 -78.5t112 -54.5q35 -8 75 0 t77 28.5t66.5 52.5t46.5 73q31 82 -10.5 139t-139.5 125q-49 33 -82 80t-46 102.5t-6 112.5t40 113q45 78 123 127t168 61l43 123h69l-41 -119v0z" />
<glyph unicode="%" horiz-adv-x="1378" d="M1346 799l-371 -250h2q117 0 179.5 -42t76.5 -104.5t-12.5 -135t-87 -135t-150.5 -104.5t-199 -42q-84 0 -141 19.5t-92 53t-47 77.5t-4 93l-340 -229h-172l370 250h-4q-117 0 -179 42t-76.5 104.5t12 135t87 135t149.5 104.5t200 42q84 0 141 -20.5t92 -54t46.5 -78 t2.5 -93.5l342 232h175zM952 465q-37 0 -70.5 -28.5t-61 -71.5t-46 -93.5t-24 -93.5t7 -71.5t45.5 -28.5t65.5 28.5t61 71.5t48 93.5t26 93.5t-5 71.5t-46.5 28.5zM379 334q35 0 69.5 28.5t62.5 71.5t46 93.5t23.5 93.5t-7 71.5t-45.5 28.5t-65.5 -28.5t-61 -71.5t-48 -93.5 t-25.5 -93.5t5 -71.5t46 -28.5z" />
<glyph unicode="&#x26;" horiz-adv-x="1335" d="M1440 475q-14 -41 -42 -90t-69 -97t-93 -91t-114 -74q-31 -66 -80 -126t-119.5 -107.5t-163.5 -76t-210 -30.5q-156 -2 -263.5 49t-169 133t-77.5 182.5t10.5 193.5t95 169t177.5 108q-4 25 -4.5 50.5t1.5 50.5q6 74 36 133t75 101t100.5 64.5t112.5 23.5t110.5 -21.5 t96.5 -69.5q49 -51 56 -122.5t-23.5 -137t-99 -112t-169.5 -43.5q121 -164 242 -226.5t227 -46.5q6 29 8.5 58.5t0.5 58.5q-35 -25 -80 -25q-57 0 -97.5 40t-40.5 95q0 57 40 97.5t98 40.5q57 0 92 -36t51 -87t18.5 -108.5t-2.5 -102.5q61 31 110.5 89t84.5 138zM586 -109 q68 -4 129 8.5t113.5 38t96.5 62.5t76 82q-106 -20 -226 15.5t-249 156.5q-131 123 -178 260q-55 -35 -81.5 -92t-27.5 -124t23.5 -136.5t69.5 -127t109.5 -97.5t144.5 -46zM760 901q-53 45 -107.5 33t-90.5 -59.5t-43 -117t34 -139.5q82 -8 140.5 21t87 75t25.5 98t-46 89z " />
<glyph unicode="'" horiz-adv-x="456" d="M289 895q-16 25 -17 66q0 57 40 97t98 40q57 0 97 -40t40 -97q0 -47 -21.5 -81t-57.5 -67t-83 -73t-98 -99l-72 29z" />
<glyph unicode="(" horiz-adv-x="837" d="M510 -414q-154 131 -228.5 294t-73.5 337t75.5 350t221 337t363.5 295t502 224l25 -112q-207 -68 -370 -189t-280.5 -271.5t-187.5 -316t-91.5 -324.5t9.5 -295t115 -226z" />
<glyph unicode=")" horiz-adv-x="837" d="M498 1423q154 -131 228.5 -293.5t73.5 -337t-76 -350.5t-221.5 -336.5t-363.5 -295t-501 -224.5l-25 113q207 68 369.5 188.5t280.5 271t187.5 316.5t91 324.5t-9 295t-114.5 226.5z" />
<glyph unicode="*" horiz-adv-x="921" d="M813 1122l-117 -188l248 135l17 -125l-240 -86l131 -113l-96 -127l-119 177l-49 -205h-152l101 190l-222 -145l-14 127l219 104l-133 90l94 125l121 -149l57 190h154z" />
<glyph unicode="+" d="M608 653l-84 -196h215l-59 -142h-215l-82 -194h-152l82 194h-211l60 142h211l82 196h153z" />
<glyph unicode="," horiz-adv-x="530" d="M84 55q-16 25 -16 66q0 57 39.5 97t97.5 40q57 0 97 -40t40 -97q0 -47 -21.5 -81t-57.5 -66.5t-83 -72.5t-98 -100l-72 29z" />
<glyph unicode="-" horiz-adv-x="552" d="M162 457h332l-60 -142h-332z" />
<glyph unicode="." horiz-adv-x="530" d="M342 121q0 -55 -40 -95t-97 -40t-97 40t-40 95q0 57 39.5 97t97.5 40q57 0 97 -40t40 -97z" />
<glyph unicode="/" horiz-adv-x="808" d="M1120 1122l-1104 -1274h-172l1102 1274h174z" />
<glyph unicode="0" horiz-adv-x="845" d="M-1440 -733q-346 0 -734 16.5t-798.5 34.5t-831.5 29.5t-830.5 3.5t-797.5 -46t-733.5 -119t-635 -213t-504.5 -331q-35 84 -121 154.5t-215 107.5t-295 32t-360 -75q100 174 286.5 336t456.5 289t624.5 208t790.5 93q567 16 1075 -3.5t976 -56t906.5 -81.5t867.5 -78 t857 -45t876 16q227 14 399.5 64.5t292 122t191.5 154.5t98.5 165t9 152.5t-72.5 115.5q-82 66 -168 39.5t-141 -143.5l-33 57q33 70 79 108t96 50t102.5 1t97.5 -40q63 -41 107 -109.5t53.5 -154.5t-22.5 -183.5t-119 -191.5t-234.5 -181t-369.5 -153.5t-525.5 -105.5 t-700.5 -39z" />
<glyph unicode="1" horiz-adv-x="614" d="M-385 -618q-283 0 -483.5 -5.5t-345 -23t-245 -49t-182 -83.5t-157.5 -128t-172 -180l-785 872h2483q229 0 390 53t242.5 132t78.5 171t-101 170q-82 66 -168 40.5t-139 -142.5l-35 57q33 68 79 107t97 51t103.5 2t95.5 -41q102 -72 156.5 -174t53.5 -214t-59.5 -221.5 t-176.5 -197.5t-300 -142t-430 -54z" />
<glyph unicode="2" horiz-adv-x="800" d="M-502 -633q-383 0 -684 -3t-537.5 -11t-415.5 -23.5t-317.5 -40t-244 -59.5t-193.5 -83t-167 -111.5t-165 -143.5l-784 893h3660q260 0 435 54.5t263 134t86 172t-96 167.5q-41 33 -84 42.5t-84 -4t-78 -49.5t-63 -93l-33 57q33 70 79 108t96 50t102.5 2t95.5 -41 q104 -70 152 -172t38 -216t-79.5 -225.5t-201 -201.5t-326 -146.5t-454.5 -56.5z" />
<glyph unicode="3" horiz-adv-x="800" d="M-616 -643q-553 0 -991.5 -3t-782.5 -11.5t-605 -23.5t-460 -39.5t-346.5 -60.5t-265 -85t-215 -113.5t-197.5 -146.5l-784 911h4837q289 0 478.5 55.5t283.5 136t93 172t-91 164.5q-82 66 -168 39.5t-139 -143.5l-35 57q33 70 79 108t97 50t102.5 2t96.5 -39 q104 -68 147 -171t23.5 -218t-102.5 -229.5t-227 -205.5t-351 -148.5t-477 -57.5z" />
<glyph unicode="4" horiz-adv-x="843" d="M-733 -655q-723 0 -1298.5 -3.5t-1027 -11.5t-793.5 -23.5t-602 -40t-449.5 -60t-336 -86t-263.5 -116t-229 -149.5l-787 930h6015q319 0 523 56.5t304.5 137t101.5 172t-87 160.5q-41 33 -84 43.5t-84 -3t-78 -49.5t-63 -93l-33 57q33 68 79 106t96 50t101.5 2t96.5 -39 q104 -68 142 -170t8 -218t-124 -232.5t-251.5 -210t-376.5 -151.5t-500 -58z" />
<glyph unicode="5" horiz-adv-x="763" d="M-848 -668q-895 0 -1605.5 -3t-1270.5 -11t-984 -22.5t-744.5 -40t-553 -62.5t-407.5 -87t-310.5 -116.5t-262.5 -152.5l-786 948h7192q350 0 568.5 57.5t325 139t107.5 173t-83 158.5q-82 66 -168 39.5t-139 -143.5l-35 57q33 70 79 108t96 50t102.5 1t97.5 -40 q106 -66 138 -169t-7 -220t-145.5 -235.5t-277.5 -214t-403.5 -155t-523.5 -59.5z" />
<glyph unicode="6" horiz-adv-x="860" d="M-618 -715q-293 29 -499 19.5t-346.5 -55.5t-227.5 -126.5t-140 -197.5q-33 84 -117 156.5t-212 114.5t-293.5 41t-362.5 -64q141 152 280.5 267.5t284 195t297 124.5t322.5 54q158 8 280.5 -5.5t228 -39t199 -58.5t192.5 -61.5t209.5 -48t250.5 -19.5q154 0 276.5 40 t212.5 103.5t144.5 143.5t71 161t-6.5 155.5t-88 125.5q-82 66 -168 40.5t-141 -142.5l-33 57q33 68 79 107t97 51t103.5 2t95.5 -41q102 -72 148 -188.5t29.5 -247.5t-95 -261t-223 -228.5t-356 -150t-492.5 -24.5z" />
<glyph unicode="7" horiz-adv-x="655" d="M-823 -719q-260 14 -511 22.5t-482.5 2.5t-439.5 -31t-385 -77t-319.5 -136t-240.5 -207q-33 84 -117 157t-212 112.5t-294 36.5t-362 -66q131 158 281.5 284.5t326.5 219t380 145.5t439 63q260 10 479.5 -5t415 -43.5t375.5 -64.5t361.5 -65.5t371 -47t406.5 -11.5 q172 4 307 46t232.5 107.5t155.5 147.5t77.5 163t-2 153.5t-82.5 123.5q-82 66 -168 40.5t-141 -142.5l-33 57q33 68 79 107t97 51t102.5 1t96.5 -40q98 -68 144 -181.5t27.5 -242.5t-105.5 -259t-252 -230.5t-414.5 -155.5t-593.5 -35z" />
<glyph unicode="8" horiz-adv-x="860" d="M-1028 -723q-328 10 -673 24.5t-685 16.5t-662.5 -17.5t-607 -77t-518 -164t-395.5 -276.5q-35 84 -120 156t-212 112t-293 35.5t-362 -69.5q121 162 283.5 301t370.5 242.5t461 167t556 73.5q362 12 677.5 -5t602.5 -48t553 -69.5t529 -69.5t532.5 -47.5t564.5 -1.5 q190 8 337.5 53t253 111.5t168 149.5t84 164t1 152.5t-79.5 120.5q-82 66 -168 40.5t-141 -142.5l-33 57q33 68 79 107t97 51t102.5 1t96.5 -40q94 -63 140 -173t26.5 -238t-114.5 -258t-282.5 -232t-475 -161.5t-693.5 -45.5z" />
<glyph unicode="9" horiz-adv-x="860" d="M-1235 -729q-295 4 -617.5 17.5t-656.5 25.5t-670.5 18t-662.5 -6t-631 -49t-574.5 -107.5t-495.5 -182t-394 -273.5q-35 84 -121 154.5t-214 109.5t-294 34t-360 -73q111 168 285.5 318.5t413.5 266.5t543 186.5t673 82.5q465 14 877.5 -3t789 -52t729 -76t697.5 -73.5 t694.5 -46t719.5 6.5q209 10 369 58.5t272.5 117t180 151.5t91 165t5 153.5t-75.5 118.5q-82 66 -168 39.5t-141 -143.5l-33 57q33 68 79 106t96 50t102.5 2t97.5 -39q68 -43 111.5 -115.5t54 -159.5t-20.5 -185.5t-109.5 -194t-214 -180.5t-335 -149.5t-470 -99 t-622.5 -30.5z" />
<glyph unicode=":" horiz-adv-x="530" d="M303 121q0 -55 -40 -95t-97 -40t-97 40t-40 95q0 57 40 97t97 40t97 -40t40 -97zM528 653q0 -55 -39.5 -95t-97.5 -40q-57 0 -97 40t-40 95q0 57 40 97.5t97 40.5t97 -40.5t40 -97.5z" />
<glyph unicode=";" horiz-adv-x="530" d="M528 653q0 -55 -39.5 -95t-97.5 -40q-57 0 -97 40t-40 95q0 57 40 97.5t97 40.5t97 -40.5t40 -97.5zM43 55q-16 25 -16 66q0 57 39.5 97t97.5 40q57 0 97 -40t40 -97q0 -47 -21.5 -81t-57.5 -66.5t-83 -72.5t-98 -100l-72 29z" />
<glyph unicode="&#x3c;" horiz-adv-x="808" d="M233 563l603 289l47 -117l-553 -260l237 -274l-131 -150l-284 377z" />
<glyph unicode="=" horiz-adv-x="1038" d="M225 436h623l-60 -141h-622zM342 696h623l-60 -141h-622z" />
<glyph unicode="&#x3e;" horiz-adv-x="808" d="M678 340l-602 -289l-47 117l553 260l-238 274l131 150l285 -377z" />
<glyph unicode="?" horiz-adv-x="755" d="M342 121q0 -55 -40 -95t-97 -40t-97 40t-40 95q0 57 39.5 97t97.5 40q57 0 97 -40t40 -97zM301 444q70 18 141.5 65.5t131 109t101.5 127t53 121t-13.5 91t-96.5 35.5q-27 0 -56.5 -8t-59.5 -22q33 -20 40 -64.5t-16 -99.5q-33 -82 -90 -128t-125 -46q-63 0 -85.5 51 t12.5 123q39 86 103.5 149.5t138 105.5t148 62.5t132.5 20.5q125 0 182 -48.5t57 -123t-51 -163.5t-141 -170t-215 -142.5t-273 -81.5z" />
<glyph unicode="@" horiz-adv-x="1417" d="M811 799q80 0 121 -58l16 41h226q-6 -18 -25 -63t-43.5 -103.5t-51 -123t-50 -122t-41 -99.5t-21.5 -54q-16 -39 3.5 -54.5t54 -9t76.5 36t71 82.5q78 141 120 282.5t31.5 254.5t-84 183.5t-225.5 70.5q-129 0 -252 -56.5t-232.5 -149.5t-198.5 -212t-148.5 -242.5 t-83 -242.5t-3 -212t91 -149.5t202.5 -56.5q94 0 184 27.5t176 76.5l23 -90q-90 -47 -187.5 -72.5t-200.5 -25.5q-162 0 -254 64.5t-124.5 169t-13 239.5t82 274.5t161.5 274.5t224 239.5t271.5 169t302.5 64.5q129 0 214 -41t131 -112.5t56 -167t-11.5 -203t-71.5 -221 t-126 -222.5q-27 -37 -66.5 -73.5t-87 -64.5t-97.5 -45t-99 -17q-63 0 -103 26.5t-51 79.5q-59 -49 -119.5 -77.5t-115.5 -28.5q-70 0 -114 31.5t-62.5 87t-11 130t43.5 158.5q88 209 219.5 307.5t272.5 98.5zM709 193q6 27 18 53l170 413q-20 31 -59 31t-73 -15.5 t-67.5 -49t-68.5 -89t-74 -135.5q-31 -59 -48.5 -111t-19.5 -91t13.5 -61.5t50.5 -22.5t76 20.5t82 57.5z" />
<glyph unicode="A" horiz-adv-x="985" d="M1024 215q-16 -49 -51 -91t-79 -75t-93 -51t-99 -18q-100 0 -144 66.5t1 195.5l33 88h-260l-70 -152q-23 -55 -10.5 -74.5t59.5 -19.5h19l-66 -88q-23 -4 -45 -8q-20 -4 -41.5 -6t-42.5 -2q-117 0 -129 64.5t80 201.5q20 31 55 83t71 105t66.5 98.5t43.5 63.5 q80 111 142 199t120.5 149.5t121 94t140.5 32.5q49 0 87 -16.5t58.5 -49t22.5 -82t-21 -112.5l-209 -596q-14 -39 7.5 -56.5t56.5 -10t75 38t62 85.5zM627 434l143 404q18 53 12 82.5t-30.5 28.5t-66.5 -35.5t-93 -108.5q-53 -78 -107.5 -177.5t-101.5 -193.5h244z" />
<glyph unicode="B" horiz-adv-x="948" d="M719 1071q74 0 132 -19.5t93 -56.5t45 -89t-10 -118q-12 -39 -40 -74.5t-64.5 -66.5t-76.5 -54.5t-75 -35.5q45 -8 79 -35.5t52 -68.5t17 -92.5t-21 -106.5q-137 -340 -567 -272q-37 6 -58 14h-221l350 856l199 123q-90 -20 -191.5 -63.5t-166.5 -108.5l-41 43l106 147 q104 43 214 60.5t245 17.5zM598 510q-55 -18 -95 -20.5t-67 6.5l-172 -418q27 -12 64 -15q45 -6 92 10.5t89 47.5t75.5 71.5t54.5 88.5q49 111 33.5 170t-74.5 59zM680 995q-10 0 -20.5 -1t-20.5 -3l-162 -391q29 2 76 -4q74 0 132 62.5t87 146.5q14 47 11 83t-18 59.5 t-37.5 35.5t-47.5 12z" />
<glyph unicode="C" horiz-adv-x="770" d="M713 211q-31 -49 -73 -91t-96.5 -75t-123 -51.5t-156.5 -18.5q-176 0 -233.5 137.5t10.5 387.5q37 135 100.5 241.5t145.5 179t178 111.5t199 39q72 0 117.5 -29.5t65 -76.5t14.5 -105.5t-36 -114.5q-27 -51 -55.5 -84.5t-56 -53t-50 -28t-36.5 -8.5q-59 0 -77 47.5 t9 112.5q29 76 80 117t113 41q18 0 26 -2q6 14 4 30.5t-13 31t-35.5 23.5t-63.5 9q-72 0 -130.5 -36t-106.5 -96.5t-86 -138t-66 -161.5q-33 -96 -49.5 -180t-7.5 -145.5t49 -96.5t120 -35q92 0 166 52.5t119 123.5l35 -57v0z" />
<glyph unicode="D" horiz-adv-x="976" d="M719 1071q178 0 250.5 -125t5.5 -375q-33 -119 -87 -232.5t-136 -199.5t-197 -131t-270 -26q-41 6 -62 14h-219l350 856l199 123q-94 -23 -193.5 -66t-162.5 -106l-41 43l106 147q104 43 213 60.5t244 17.5zM702 995q-14 0 -29.5 -1t-31.5 -3l-377 -913q14 -4 28.5 -8 t35.5 -7q68 -8 129 31t113.5 106.5t93.5 152.5t69 169q35 104 51.5 190.5t13.5 150t-27 98t-69 34.5z" />
<glyph unicode="E" horiz-adv-x="909" d="M1077 899q-59 -35 -112.5 -24.5t-105.5 37t-105.5 55t-108.5 28.5h-4l-160 -383h275l-37 -104h-281q-37 -90 -71.5 -173t-59.5 -147q27 20 60.5 37t74.5 17q35 0 71 -18.5t73 -39t74.5 -38t77.5 -13.5t83 35t88 104l35 -57q-63 -111 -148 -172t-171 -61q-53 0 -95.5 21.5 t-77 48t-63.5 48t-57 21.5q-20 0 -43 -11.5t-44.5 -27.5t-41 -34.5t-31.5 -31.5l-8 -10l-10 -10h-150l350 856l217 135q-41 -8 -91 -24.5t-101 -39t-98.5 -53t-83.5 -67.5l-41 43l106 147q51 20 98.5 35.5t96.5 25t103 13.5t122 4q41 0 92 -6t111.5 -10t127 -2t140.5 18z " />
<glyph unicode="F" horiz-adv-x="757" d="M1010 899q-57 -35 -111.5 -24.5t-107 37t-104.5 55t-107 28.5h-5l-188 -456h311l-39 -105h-315l-104 -256q-16 -43 -4 -68.5t59 -25.5h18l-41 -88q-16 -4 -34 -8q-16 -4 -36 -6t-40 -2q-119 0 -147.5 64.5t26.5 201.5l248 606l217 135q-41 -8 -91 -24.5t-101.5 -39 t-98.5 -53t-84 -67.5l-41 43l107 147q51 20 98 35.5t96 25t103.5 13.5t121.5 4q41 0 92.5 -6t112 -10t127 -2t137.5 18z" />
<glyph unicode="G" horiz-adv-x="819" d="M739 401q-16 -43 -37.5 -102t-45 -118.5t-43 -110t-29.5 -74.5q-57 -139 -137 -202.5t-195 -63.5q-20 0 -37.5 2t-30.5 6q-16 4 -28 8l30 90h21q45 0 77.5 24.5t49.5 67.5l33 84q-31 -16 -69 -26.5t-83 -10.5q-63 0 -112.5 36t-75 103.5t-22.5 165t46 220.5 q92 270 254 420.5t367 150.5q74 0 119 -29.5t65.5 -76.5t14 -105.5t-34.5 -114.5q-29 -51 -57.5 -84.5t-55.5 -53t-49.5 -28t-36.5 -8.5q-59 0 -76.5 47.5t6.5 112.5q29 76 80 117t113 41q18 0 26 -2q6 14 4 30.5t-13 31t-35.5 23.5t-63.5 9q-70 0 -129.5 -36t-107.5 -96.5 t-86 -138t-64 -161.5q-33 -96 -50.5 -179t-17.5 -144.5t15.5 -99.5t50.5 -44q27 -4 52.5 11.5t49 44t46 67.5t40.5 82q10 27 19.5 50t17.5 40q8 20 14 37l17 41l16 37h281l-37 -91h-66z" />
<glyph unicode="H" horiz-adv-x="925" d="M582 434h-238l-104 -256q-16 -43 -4 -68.5t59 -25.5h20l-43 -88q-16 -4 -34 -8q-16 -4 -36 -6t-40 -2q-117 0 -146.5 64.5t25.5 201.5q8 20 28.5 70.5t47 115t55.5 135t54.5 134t45 110.5t27.5 66q18 41 5 66.5t-60 25.5h-19l41 88q16 4 35 8q16 4 35.5 6t40.5 2 q119 0 147.5 -64.5t-26.5 -201.5l-111 -268h238l137 338q18 41 6 66.5t-59 25.5h-21l41 88q16 4 35 8q16 4 35.5 6t42.5 2q117 0 146.5 -64.5t-27.5 -201.5l-240 -592q-16 -41 4 -58.5t56 -10t77 39t68 86.5l35 -57q-20 -49 -56.5 -91t-80.5 -75t-94 -51t-99 -18t-85 17 t-54.5 50t-16.5 82t29 113z" />
<glyph unicode="I" horiz-adv-x="516" d="M635 981h-76l-309 -766q-20 -51 6.5 -67.5t72.5 -6t99 44t88 86.5l35 -57q-29 -53 -73 -96t-94 -74t-102.5 -48t-101.5 -17t-89 17t-61.5 50t-22.5 82t26 113q4 12 22.5 56t44 106.5t56 139.5t62.5 154.5t61.5 151.5t52.5 131h-88l37 90h391z" />
<glyph unicode="J" horiz-adv-x="790" d="M219 446q59 0 77.5 -47t-7.5 -112q-29 -70 -75 -111t-101 -47q8 -33 34.5 -52.5t67.5 -19.5h10q53 4 83 41t48 78q4 10 28 69.5t57.5 142.5t73.5 179.5t75 182.5t60.5 149.5t33.5 81.5h-158l43 90h459l-45 -90h-94q-16 -43 -42 -109.5t-54.5 -142.5t-59.5 -154.5 t-57.5 -146.5t-46 -118t-25.5 -66q-57 -139 -147 -203t-221 -64h-9q-72 2 -120 29t-73.5 71t-27.5 98t21 112q31 76 81 117.5t111 41.5z" />
<glyph unicode="K" horiz-adv-x="905" d="M240 178q-16 -43 -4 -68.5t59 -25.5h20l-43 -88q-16 -4 -34 -8q-16 -4 -36 -6t-40 -2q-117 0 -146.5 64.5t25.5 201.5q8 20 28.5 70.5t47 115t55.5 135t54.5 134t45 110.5t27.5 66q18 41 5 66.5t-60 25.5h-19l41 88q16 4 35 8q16 4 35.5 6t40.5 2q119 0 147.5 -64.5 t-26.5 -201.5l-84 -201q27 12 60.5 15.5t76.5 -11.5q92 72 141 146.5t72 126.5q25 57 3 82.5t-87 9.5l31 82q16 2 34 6q16 4 35 6t41 2q47 0 87 -15.5t63.5 -42t26.5 -64.5t-21 -83q-47 -86 -146.5 -168t-232.5 -159l70 -324q14 -70 71 -70q31 0 82 32t82 95l35 -57 q-20 -49 -56 -91t-81 -75t-95.5 -51t-99.5 -18q-100 0 -137 66.5t-29 195.5l11 209q-66 -2 -86 32l-125 -305v0z" />
<glyph unicode="L" horiz-adv-x="868" d="M4 -4q86 203 154 373q29 72 57.5 143.5t53 130.5t43 103.5t24.5 60.5q57 137 137 201.5t195 62.5q20 0 36.5 -2t30.5 -6t29 -8l-31 -88h-20q-45 0 -78 -26t-49 -67l-279 -686q27 20 60.5 37t74.5 17q35 0 68 -18.5t65.5 -39t64.5 -38t67.5 -13.5t75.5 35t85 104l35 -57 q-63 -111 -148 -172t-171 -61q-53 0 -89 21.5t-62.5 48t-49.5 48t-51 21.5q-20 0 -43 -11.5t-44.5 -27.5t-41 -34.5t-31.5 -31.5l-8 -10l-10 -10h-150v0z" />
<glyph unicode="M" horiz-adv-x="1218" d="M989 715q-59 -74 -122.5 -155t-121 -153.5t-104.5 -132t-72 -90.5q-43 -55 -84 -77.5t-72.5 -14.5t-50 47t-16.5 107q0 20 2 71.5t4 117t4 137t4 135.5l-219 -537q-25 -61 -7 -85t83 -7l-39 -80q-16 -6 -35 -10q-16 -4 -36.5 -7.5t-40.5 1.5q-39 6 -54.5 39.5t2.5 80.5 l322 783q14 35 14 55q-23 29 -71 29h-21l8 88q14 4 33 8q16 4 33.5 6t40.5 2q117 0 170 -64.5t49 -201.5l-17 -469l482 610q-16 20 -56 21h-20l41 88q16 4 35 8q16 4 35.5 6t42.5 2q117 0 146.5 -64.5t-28.5 -201.5l-239 -592q-16 -41 4 -58.5t56 -10t77 39t68 86.5l34 -57 q-20 -49 -56 -91t-80 -75t-94 -51t-99 -18t-85 17t-54.5 50t-16.5 82t29 113z" />
<glyph unicode="N" horiz-adv-x="987" d="M1081 868q-10 -25 -29.5 -66.5t-43 -95t-51 -114t-54.5 -119.5q-63 -141 -135 -303q-20 -61 -1 -85t85 -7l-31 -80q-18 -6 -43 -10q-23 -4 -52.5 -6t-66.5 -2q-117 0 -177 64.5t-70 201.5l-37 485q-33 -86 -62.5 -174t-52 -165t-37 -136t-18.5 -86q-8 -61 5 -86t79 -8 l-31 -80q-16 -4 -35 -8q-16 -4 -35.5 -6t-40.5 -2q-96 0 -128.5 56t8.5 150q10 23 29.5 66t43 96t51 113.5t54.5 120.5q63 139 135 301q4 14 6 25.5t4 21.5q-27 39 -82 39h-20v88q14 4 31 8q14 4 32.5 6t40.5 2q117 0 176.5 -64.5t69.5 -201.5q2 -23 5 -75t8 -117.5 t10.5 -138.5t10.5 -135t8 -107.5t3 -55.5q4 -31 14 -49l228 756q20 61 0.5 84.5t-84.5 7.5l30 80q16 4 35 8q16 4 35 6t41 2q96 0 138 -55.5t1 -149.5z" />
<glyph unicode="O" horiz-adv-x="942" d="M680 1071q84 0 146.5 -31.5t96 -94t34.5 -157t-37 -217.5q-37 -119 -92.5 -227t-132.5 -190t-177 -130.5t-229 -48.5q-90 0 -153.5 33t-97.5 95.5t-33 156.5t42 217q39 115 89 221.5t123 189.5t175.5 133t245.5 50zM672 522q33 98 55.5 183.5t25.5 150t-16.5 101 t-70.5 36.5q-55 0 -108.5 -42t-101.5 -108.5t-89 -150.5t-70 -168q-33 -96 -56.5 -180t-26.5 -146.5t17.5 -98.5t73.5 -36q59 0 113.5 41t100.5 105.5t85 146.5t68 166z" />
<glyph unicode="P" horiz-adv-x="821" d="M655 1071q74 0 133.5 -28.5t94.5 -82t40 -128t-28 -164.5q-31 -84 -85 -151.5t-128 -109.5t-166 -54.5t-199 14.5l-77 -189q-16 -43 -4 -68.5t59 -25.5h20l-43 -88q-16 -4 -34 -8q-16 -4 -36 -6t-40 -2q-117 0 -146.5 64.5t25.5 201.5l248 606l200 123 q-90 -20 -191 -63.5t-167 -108.5l-41 43l107 147q104 43 213.5 60.5t244.5 17.5zM616 995q-10 0 -20 -1t-21 -3l-223 -538q63 -8 116.5 14t97.5 64t77 95.5t53 104.5q43 113 26.5 188.5t-106.5 75.5z" />
<glyph unicode="Q" horiz-adv-x="970" d="M680 1071q82 0 144.5 -31.5t96 -94t35.5 -157t-36 -217.5q-37 -117 -89.5 -220t-123.5 -185q29 -18 58.5 -27.5t61 -2.5t67.5 39t77 97l35 -57q-63 -111 -149.5 -172t-172.5 -61q-47 0 -80 16t-59 39q-55 -29 -120 -45.5t-138 -16.5q-88 0 -152.5 33t-97.5 95.5 t-32 156.5t42 217q39 115 89 221.5t123 189.5t175.5 133t245.5 50zM670 522q33 98 55.5 183.5t26.5 150t-15.5 101t-70.5 36.5q-55 0 -108.5 -42t-101.5 -108.5t-89 -150.5t-70 -168q-18 -53 -33.5 -100t-25.5 -92q27 23 62.5 40t78.5 17q59 0 110.5 -31.5t83.5 -60.5 q29 53 53 109.5t44 115.5zM268 270q-18 0 -47 -14q-16 -88 1.5 -140.5t82.5 -52.5q41 0 79 19.5t73 54.5q-8 16 -24.5 39t-39 44.5t-54.5 35.5t-71 14z" />
<glyph unicode="R" horiz-adv-x="903" d="M653 1071q152 0 227.5 -74.5t34.5 -208.5q-23 -70 -102.5 -151.5t-214.5 -142.5l68 -279q14 -70 71 -70q31 0 82 32t82 95l35 -57q-20 -49 -56 -91t-81 -75t-95.5 -51t-99.5 -18q-100 0 -134 66.5t-32 195.5l2 211q-55 0 -75 28l-125 -303q-16 -43 -4 -68.5t59 -25.5h20 l-43 -88q-16 -4 -34 -8q-16 -4 -36 -6t-40 -2q-117 0 -146.5 64.5t25.5 201.5l248 606l200 123q-90 -20 -191 -63.5t-167 -108.5l-41 43l107 147q104 43 212.5 60.5t243.5 17.5zM616 995q-10 0 -20 -1t-21 -3l-161 -389q29 16 68.5 18.5t88.5 -14.5q53 18 81 65.5t55 133.5 q14 47 12 83t-17.5 59.5t-38 35.5t-47.5 12z" />
<glyph unicode="S" horiz-adv-x="790" d="M680 1065q51 -10 89 -40t54.5 -72t11 -95t-39.5 -113q-37 -66 -86.5 -88t-85.5 0q-37 23 -42.5 73t23.5 99q29 47 75 66.5t83 -2.5q2 35 -26.5 63.5t-88.5 38.5q-70 10 -131 -26.5t-88 -100.5q-31 -70 4 -135t115 -117q109 -66 156 -157.5t-1 -212.5q-27 -63 -77 -118.5 t-117.5 -93.5t-147 -54.5t-163.5 -4.5q-63 10 -107.5 46t-66 85.5t-18.5 107.5t32 112q31 59 81 92t95 8q37 -20 42 -71.5t-24 -98.5q-27 -45 -68.5 -64.5t-78.5 -5.5q-6 -39 37 -78.5t112 -54.5q35 -8 75 0t77 28.5t66.5 52.5t46.5 73q31 82 -10.5 139t-139.5 125 q-49 33 -82 80t-46 102.5t-6 112.5t40 113q31 53 79 94t105.5 65.5t120 31.5t121.5 -5z" />
<glyph unicode="T" horiz-adv-x="675" d="M907 899q-43 -27 -79.5 -28t-70.5 12.5t-67 35t-67 39.5l-320 -780q-16 -43 -5 -68.5t58 -25.5h21l-41 -88q-16 -4 -35 -8q-16 -4 -36.5 -6t-41.5 -2q-117 0 -145.5 64.5t26.5 201.5l283 692l141 55q-4 0 -8 1t-8 1q-59 4 -121.5 -11t-124 -44t-118 -70t-103.5 -86 l-41 43l164 215q104 43 191 46.5t192 -17.5q41 -8 86 -15t97 -9.5t113.5 3t135.5 21.5z" />
<glyph unicode="U" horiz-adv-x="960" d="M551 266q-43 -61 -91 -113.5t-97.5 -90t-99.5 -60t-101 -22.5q-119 0 -147.5 64.5t26.5 201.5q8 20 28.5 70.5t47 115t55.5 135t54.5 134t45 110.5t27.5 66q16 41 4 66.5t-59 25.5h-21l43 88q16 4 35 8q16 4 35.5 6t40.5 2q117 0 146.5 -64.5t-25.5 -201.5l-258 -629 q-18 -47 -5 -61.5t48.5 3t89 65.5t115 124t126 179.5t121.5 232.5l64 156q18 41 6 66.5t-60 25.5h-20l41 88q16 4 35 8q16 4 35.5 6t42.5 2q117 0 145.5 -64.5t-27.5 -201.5l-239 -592q-16 -41 4 -58.5t55 -10t77 39t69 86.5l34 -57q-20 -49 -56 -91t-80 -75t-94 -51 t-99 -18t-85 17t-54.5 50t-16.5 82t29 113z" />
<glyph unicode="V" horiz-adv-x="813" d="M4 838q16 49 51 91t79 73.5t93 50t99 18.5q100 0 144 -66.5t-1 -193.5q-4 -12 -17.5 -50t-33 -92.5t-42 -119t-44 -127t-42 -117.5t-32.5 -90q-18 -53 -12 -83t31.5 -29t66.5 36t94 109q35 49 71 112.5t69.5 129t64.5 130t55.5 118t42 90t25.5 46.5q29 43 14.5 68 t-61.5 25h-21l66 90q23 2 45 6q18 4 40.5 6t43.5 2q119 0 130 -63.5t-81 -202.5q-20 -31 -55 -83t-71 -104.5t-66.5 -97.5t-42.5 -63q-80 -111 -142.5 -199t-121 -150.5t-121 -95t-140.5 -32.5q-100 0 -145 66.5t-2 195.5l211 596q12 39 -9.5 55t-56.5 10t-74.5 -36.5 t-62.5 -86.5z" />
<glyph unicode="W" horiz-adv-x="1247" d="M436 248q16 25 44 79t50 105q27 63 53.5 129t52.5 125t47.5 108.5t35.5 82.5q18 41 6 66.5t-59 25.5h-21l41 88q16 4 35 8q16 4 35.5 6t42.5 2q117 0 144.5 -65.5t-25.5 -200.5q-27 -68 -57 -142.5t-60.5 -151.5t-61 -153.5t-59.5 -144.5q-23 -51 -17.5 -81t32 -29 t69.5 35t94 108q35 49 71 112.5t69.5 129t64.5 130t55.5 118t42 90t25.5 46.5q29 43 14.5 68t-61.5 25h-21l66 90q23 2 45 6q20 4 41.5 6t44.5 2q117 0 129 -63.5t-80 -202.5q-23 -31 -57.5 -83t-70.5 -104.5t-66.5 -97.5t-43.5 -63q-80 -111 -142 -199t-120.5 -150.5 t-121 -95t-140.5 -32.5q-66 0 -112 29.5t-56 88.5q-57 -57 -116.5 -87.5t-135.5 -30.5q-49 0 -87 17t-58.5 50t-22.5 82t21 113l209 596q14 39 -7.5 55t-56.5 10t-74.5 -36.5t-62.5 -86.5l-39 58q16 49 51 91t79 73.5t93 50t99 18.5q100 0 144 -66.5t-1 -193.5 q-4 -12 -17.5 -50t-33 -92.5t-42 -119t-44 -127t-42 -117.5t-32.5 -90q-18 -53 -12 -83t30.5 -29t66.5 36t93 109z" />
<glyph unicode="X" horiz-adv-x="931" d="M438 451q-78 -59 -131 -138.5t-71 -142.5q-18 -59 0 -85t83 -9l-30 -80q-16 -4 -35 -8q-16 -4 -35.5 -6t-40.5 -2q-47 0 -86 14t-61.5 41.5t-26.5 65.5t19 85q25 51 64.5 102.5t92.5 96.5t115.5 85t130.5 71l-45 336q-6 41 -32.5 66.5t-74.5 25.5h-18l-8 88q14 4 31 8 q14 4 32.5 6t40.5 2q117 0 181.5 -64.5t82.5 -201.5l23 -164q59 57 99 121.5t57 118.5q16 59 -1.5 83.5t-82.5 8.5l30 82q16 2 35 6q16 4 34.5 6t41.5 2q47 0 86 -14.5t61.5 -41t25.5 -64.5t-17 -85q-45 -96 -139.5 -182t-213.5 -149l45 -320q6 -35 21.5 -52.5t46.5 -17.5 t82 32t82 95l35 -57q-20 -49 -56.5 -91t-81.5 -75t-95 -51t-99 -18t-78 17t-45 50t-25.5 82t-17.5 113z" />
<glyph unicode="Y" horiz-adv-x="659" d="M109 1073q117 0 181 -64.5t83 -201.5l28 -207q78 61 132.5 139t72.5 144q18 59 0 83.5t-84 8.5l31 82q16 2 35 6q16 4 34.5 6t41.5 2q47 0 85.5 -14.5t61.5 -41t26 -64.5t-18 -85q-47 -104 -152.5 -195t-236.5 -153l-139 -340q-16 -43 -4 -68.5t59 -25.5h19l-41 -88 q-16 -4 -35 -8q-16 -4 -36 -6t-40 -2q-119 0 -147.5 64.5t26.5 201.5l98 243l-53 388q-4 41 -30.5 66.5t-73.5 25.5h-21l-8 88q14 4 31 8q14 4 32.5 6t41.5 2z" />
<glyph unicode="Z" horiz-adv-x="868" d="M1022 899l-563 -600l-170 -66l-23 -28q25 16 52.5 26.5t62.5 10.5q53 0 118.5 -28t132 -44t128 -1t108.5 103l35 -57q-63 -111 -138 -172t-161 -61q-53 0 -101 18t-90 40.5t-78 41t-65 18.5q-27 0 -57.5 -16t-56.5 -37q-33 -23 -64 -51l-88 131l758 805l61 -12 q-35 25 -72.5 48t-84.5 27q-96 6 -187.5 -54t-187.5 -157l-41 43l164 215q92 39 157.5 41t130.5 -12q41 -8 81 -15t86 -9.5t101.5 3t127.5 21.5z" />
<glyph unicode="[" horiz-adv-x="837" d="M1204 1399l-59 -142h-361l-526 -1495h369l-60 -141h-510l625 1778h522z" />
<glyph unicode="\" horiz-adv-x="808" d="M293 1122l358 -1274h-151l-361 1274h154z" />
<glyph unicode="]" horiz-adv-x="837" d="M-229 -379l59 141h360l527 1495h-369l60 142h510l-625 -1778h-522z" />
<glyph unicode="^" horiz-adv-x="907" d="M963 1225l53 -295l-246 -2l12 215l-360 -240l-74 101l416 221h199z" />
<glyph unicode="_" d="M59 27h578l-59 -142h-578z" />
<glyph unicode="`" d="M664 883l-451 196l125 217l367 -333z" />
<glyph unicode="a" d="M528 799q80 0 121 -58q6 14 9.5 25.5t7.5 15.5h225q-6 -18 -24.5 -63t-43 -103.5t-51.5 -123t-50.5 -122t-40.5 -99.5t-22 -54q-16 -39 4.5 -55.5t55.5 -10t77 37t68 85.5l35 -57q-20 -49 -56 -91t-80 -72.5t-94.5 -49t-99.5 -18.5q-63 0 -103 26.5t-50 79.5 q-59 -49 -119.5 -77.5t-116.5 -28.5q-70 0 -113.5 31.5t-62 87t-11.5 130t44 158.5q88 209 219 307.5t272 98.5zM614 662q-18 29 -59 28q-39 0 -72.5 -15.5t-67.5 -49t-69 -89t-74 -135.5q-31 -59 -48 -111t-19 -91t13 -61.5t50 -22.5t76 20.5t82 57.5q6 27 18 53z" />
<glyph unicode="b" horiz-adv-x="800" d="M-113 0q104 254 187 457q35 86 68.5 169t61 148.5t44 106.5t18.5 45q18 41 6 66.5t-59 25.5h-20l43 88q16 2 34 6q16 4 35 6t41 2q117 0 145.5 -63.5t-28.5 -200.5l-51 -123q47 31 94 48.5t90 17.5q70 0 114 -32t62.5 -87t11 -129t-44.5 -158q-88 -209 -219 -308 t-270 -99q-78 0 -123 55q-10 -23 -12 -31q-2 -6 -4 -10h-224zM508 670q-35 0 -73 -19.5t-79 -54.5q-25 -59 -50 -122.5t-51 -126t-50.5 -121t-42.5 -103.5q18 -27 59 -27q78 0 142.5 63.5t142.5 221.5q29 59 46 112.5t19 92.5t-12 61.5t-51 22.5z" />
<glyph unicode="c" horiz-adv-x="704" d="M739 217q-51 -109 -175 -170t-292 -61q-86 0 -146 31.5t-93 87t-35 130t31 158.5q80 199 209 302.5t286 103.5q66 0 105 -30t53 -77t5 -105.5t-38 -113.5q-27 -51 -55.5 -84t-55 -52.5t-50 -26.5t-37.5 -7q-57 0 -75 45t7 111q31 76 81 116.5t111 40.5h13.5t11.5 -2 q6 41 -11.5 68t-58.5 27t-79.5 -29t-74.5 -74t-65.5 -101t-50.5 -114q-55 -147 -16 -219t149 -72q43 0 89 14.5t88 38t77 55.5t58 66z" />
<glyph unicode="d" d="M528 799q80 0 121 -58l76 185q18 41 5 66.5t-58 25.5h-21l41 88q16 2 35 6q16 4 35.5 6t40.5 2q117 0 146.5 -63.5t-27.5 -200.5l-263 -639q-14 -41 5.5 -57.5t55.5 -9t77 38t67 85.5l35 -57q-20 -49 -56 -91t-80 -72.5t-94.5 -49t-99.5 -18.5q-63 0 -102 25.5t-49 78.5 q-59 -49 -120.5 -76.5t-117.5 -27.5q-70 0 -113.5 31.5t-62 87t-11.5 130t44 158.5q90 209 220 307.5t271 98.5zM444 246q6 14 23.5 56t42.5 99.5t52.5 126t53.5 134.5q-23 29 -61 28q-76 0 -139.5 -64.5t-143.5 -224.5q-29 -59 -46 -111t-19 -91t13.5 -61.5t49.5 -22.5 q35 0 74 20.5t80 54.5q4 14 9 27t11 29z" />
<glyph unicode="e" horiz-adv-x="704" d="M393 100q43 0 89 14.5t88 38t77 55.5t58 66l34 -57q-51 -109 -176 -170t-291 -61q-86 0 -146 31.5t-93 87t-35 130t31 158.5q78 199 208 302.5t287 103.5q84 0 127 -44t48.5 -106.5t-26.5 -133.5t-98 -126q-92 -76 -213 -76h-131q-27 -92 19.5 -152.5t142.5 -60.5z M473 707q-20 -8 -48 -37t-56.5 -72t-58 -96t-52.5 -111h72q47 0 79.5 29t61.5 88q25 45 39 86t16 69.5t-10 42t-43 1.5z" />
<glyph unicode="f" horiz-adv-x="688" d="M178 713q80 201 209 304t287 103q66 0 104.5 -29.5t53 -75.5t5 -104.5t-37.5 -113.5q-27 -51 -55.5 -85t-55 -53.5t-50.5 -27.5t-38 -8q-57 0 -74.5 47t6.5 112q31 74 81.5 116t111.5 42q10 0 27 -4q4 41 -13.5 67.5t-58.5 26.5t-80 -27.5t-75 -72.5t-65.5 -102.5 t-49.5 -114.5l-111 -269q125 -10 131 -153q59 2 112.5 17.5t96.5 40t76 56t53 64.5l35 -55q-45 -98 -145.5 -157.5t-239.5 -74.5q-10 -35 -22.5 -74.5t-33.5 -80.5q-90 -188 -190 -286.5t-199 -98.5q-98 0 -138 66.5t13 193.5zM266 45q41 82 57.5 141.5t13.5 97.5t-23.5 55 t-51.5 15l-196 -479q-16 -39 -6 -57.5t38.5 -3t72.5 71t95 159.5z" />
<glyph unicode="g" horiz-adv-x="811" d="M887 782q-16 -39 -37 -90t-45.5 -109.5t-49 -121t-48.5 -121.5q-57 -139 -119 -291q-78 -199 -207 -303t-287 -104q-66 0 -104.5 30.5t-54 77.5t-6 104.5t39.5 112.5q29 47 66 82q-43 55 -43 144.5t45 199.5q90 209 221 307.5t272 98.5q76 0 117 -54l15 37h225zM272 115 q31 0 67 17.5t73 45.5l200 488q-20 25 -57 24q-37 0 -70.5 -15.5t-67.5 -49t-69 -89t-74 -135.5q-31 -59 -48 -111t-19 -91t13 -61.5t52 -22.5zM182 -14q-25 0 -45 4t-39 10q-29 -20 -53.5 -59t-38.5 -99q-10 -51 15.5 -80.5t66.5 -29.5q39 0 78 27.5t74.5 72.5t65.5 101.5 t50 111.5q-45 -29 -89 -44t-85 -15z" />
<glyph unicode="h" horiz-adv-x="788" d="M184 180q-16 -43 -3.5 -67.5t59.5 -24.5h20l-43 -88q-16 -4 -35 -8q-31 -6 -76 -6q-117 0 -145.5 63.5t27.5 198.5l282 698q18 41 6 66.5t-59 25.5h-20l43 88q16 2 34 7q16 4 35 6t41 2q117 0 146.5 -63.5t-27.5 -203.5l-55 -133q41 27 87 42.5t91 15.5q98 0 137 -66.5 t-12 -193.5l-133 -322q-14 -39 6 -55.5t55 -10t76 37t67 85.5l35 -57q-20 -49 -56 -91t-80 -72.5t-94 -49t-99 -18.5t-85 16t-53.5 49t-15.5 82t29 113l133 319q12 31 1 48.5t-36 19.5t-56.5 -11.5t-62.5 -41.5l-164 -400v0z" />
<glyph unicode="i" horiz-adv-x="405" d="M440 217q-20 -49 -56 -91t-80 -72.5t-94 -49t-99 -18.5q-100 0 -139.5 65.5t14.5 194.5q10 25 31.5 75t44 105t42 104.5t29.5 71.5q16 41 4 66.5t-59 25.5h-21l43 88q16 4 35 9q16 4 35.5 6t40.5 2q117 0 145.5 -64.5t-26.5 -199.5q-12 -31 -34 -84.5t-44 -106.5 q-25 -61 -51 -127q-16 -41 4 -57.5t56 -9t77 38t68 85.5zM526 997q0 -51 -36.5 -88t-88.5 -37q-53 0 -90 37t-37 88t37 88t90 37q51 0 88 -37t37 -88z" />
<glyph unicode="j" horiz-adv-x="364" d="M47 -162q-18 -41 -6 -66.5t59 -25.5h21l-43 -88q-16 -4 -35 -8q-16 -4 -35.5 -6t-40.5 -2q-117 0 -144.5 64.5t27.5 199.5q8 20 30 75.5t51.5 127t61.5 150.5t60.5 149.5t50 123t29.5 70.5q18 41 5 66.5t-60 25.5h-21l43 88q16 4 35 9q16 4 35.5 6t40.5 2 q117 0 145.5 -64.5t-26.5 -199.5q-8 -23 -32 -80.5t-53.5 -131t-62 -154.5t-61.5 -150.5t-49.5 -120t-24.5 -60.5zM526 997q0 -51 -36.5 -88t-88.5 -37q-53 0 -90 37t-37 88t37 88t90 37q51 0 88 -37t37 -88z" />
<glyph unicode="k" horiz-adv-x="761" d="M557 217q-16 -39 3.5 -55.5t55 -10t76.5 37t70 85.5l33 -57q-18 -49 -54 -91t-81.5 -72.5t-94.5 -49t-98 -18.5q-100 0 -139 69.5t12 190.5q12 29 9 51t-16.5 34.5t-37 11.5t-49.5 -19l-60 -144q-16 -43 -3.5 -67.5t59.5 -24.5h18l-41 -88q-16 -4 -35 -8q-31 -6 -75 -6 q-119 0 -148 63.5t27 198.5q8 20 31.5 75.5t52 127t61.5 151.5t61.5 150.5t49 123t28.5 70.5q18 41 6 66.5t-59 25.5h-20l41 88q16 2 34 7q16 4 36 6t40 2q117 0 145.5 -63.5t-26.5 -203.5l-182 -446l207 72q-20 20 -21.5 56t14.5 77q29 76 79 117t114 41q57 0 77.5 -47.5 t-9.5 -110.5q-49 -104 -121 -144t-140 -51q76 -10 91.5 -68.5t-21.5 -152.5z" />
<glyph unicode="l" horiz-adv-x="407" d="M442 217q-20 -49 -56 -91t-80 -72.5t-94 -49t-99 -18.5t-85 16t-54.5 49t-16.5 82t29 113q6 16 28.5 68.5t51 123t61.5 150.5t61.5 150.5t50 121.5t27.5 66q18 41 6 66.5t-59 25.5h-20l43 88q16 2 34 6q16 4 35 6t41 2q117 0 145.5 -63.5t-28.5 -200.5q-6 -16 -20.5 -51 t-34 -83t-43 -104.5t-46.5 -111.5q-53 -131 -116 -289q-16 -41 4 -57.5t55 -9t76 38t70 85.5l34 -57v0z" />
<glyph unicode="m" horiz-adv-x="1159" d="M954 217q-16 -39 4.5 -55.5t55.5 -10t77 37t68 85.5l35 -57q-20 -49 -56 -91t-80 -72.5t-94.5 -49t-99.5 -18.5q-100 0 -139 65.5t14 194.5l131 319q12 31 3 47.5t-31.5 19.5t-53 -7.5t-59.5 -34.5q-4 -12 -9 -24.5t-9 -26.5l-148 -359q-16 -43 -4 -67.5t57 -24.5h21 l-41 -88q-16 -4 -35 -8q-31 -6 -76 -6q-117 0 -146.5 63.5t28.5 198.5q12 29 32.5 82t42.5 106q25 61 54 129q12 31 0.5 48.5t-34 20.5t-53 -9.5t-61.5 -38.5q-4 -12 -9 -24.5t-9 -26.5q-12 -33 -35 -86.5t-44.5 -107.5t-39.5 -99t-25 -62q-18 -43 -5.5 -67.5t59.5 -24.5h20 l-43 -88q-16 -4 -35 -8q-31 -6 -76 -6q-117 0 -145.5 63.5t27.5 198.5q12 33 32.5 82t42 101t40 98t30.5 73q16 41 4 66.5t-57 25.5h-21l41 88q16 4 35 9q16 4 34.5 6t41.5 2q135 0 154 -90q49 41 106 65.5t115 24.5q125 0 149 -94q49 43 107.5 68.5t118.5 25.5 q100 0 138 -65.5t-14 -194.5z" />
<glyph unicode="n" horiz-adv-x="790" d="M184 180q-16 -43 -3.5 -67.5t59.5 -24.5h20l-41 -88q-16 -4 -35 -8q-31 -6 -75 -6q-117 0 -147 63.5t26 198.5l145 354q18 41 6 66.5t-59 25.5h-21l41 88q16 4 35 9q16 4 35.5 6t40.5 2q139 0 154 -97q49 45 108 71t119 26q100 0 139 -65.5t-14 -194.5q-10 -27 -28.5 -73 t-39 -95t-38 -92t-25.5 -62q-16 -39 4 -55.5t56 -10t77 37t68 85.5l34 -57q-20 -49 -56 -91t-80 -72.5t-94 -49t-99 -18.5t-85 16t-54.5 49t-16.5 82t29 113l133 319q12 31 1 48.5t-36 18.5t-58.5 -12.5t-64.5 -44.5q-4 -10 -7 -20t-7 -20q-12 -33 -35 -86.5t-44.5 -107.5 t-41 -99.5t-25.5 -61.5z" />
<glyph unicode="o" horiz-adv-x="768" d="M526 799q74 0 124 -32t72.5 -87t18.5 -129t-36 -158q-37 -96 -90.5 -171t-118 -128t-137 -80.5t-150.5 -27.5q-76 0 -125 31.5t-71.5 87t-17.5 130t38 158.5q78 195 205.5 300.5t287.5 105.5zM475 391q25 63 40 120.5t19.5 101.5t-4 71t-32.5 27q-25 0 -55.5 -27 t-62.5 -71t-62.5 -101t-55.5 -121q-25 -61 -41 -117.5t-19 -99.5t7 -68.5t35 -25.5t54.5 25.5t60 68.5t61 99.5t55.5 117.5z" />
<glyph unicode="p" horiz-adv-x="800" d="M248 -14q-78 0 -119 53l-82 -201q-18 -41 -5 -66.5t58 -25.5h21l-43 -88q-16 -4 -35 -8q-16 -4 -35.5 -6t-40.5 -2q-117 0 -144.5 64.5t27.5 199.5q8 20 31 75.5t51.5 127t61.5 150.5t61.5 149.5t49 123t28.5 70.5q18 41 5 66.5t-60 25.5h-19l41 88q16 4 35 9 q16 4 35.5 6t40.5 2q143 0 156 -99q57 47 115.5 73t111.5 26q70 0 114 -32t63.5 -87t11 -129t-43.5 -158q-90 -211 -220 -309t-271 -98zM164 121q18 -25 57 -25q37 0 71 14.5t67.5 48.5t68.5 88t76 134q29 59 46 112.5t19 92.5t-13 61.5t-50 22.5t-74 -19.5t-80 -54.5 q-4 -16 -9 -30.5t-11 -30.5z" />
<glyph unicode="q" horiz-adv-x="817" d="M893 782q-106 -254 -188 -456q-35 -86 -70 -169t-61.5 -147.5t-44 -106.5t-17.5 -44q-18 -41 -5 -66.5t60 -25.5h19l-41 -91q-16 -4 -35 -8q-31 -6 -76 -6q-119 0 -147.5 64.5t26.5 199.5q2 4 15.5 38t36.5 87q-47 -31 -94.5 -48t-88.5 -17q-70 0 -113.5 31.5t-63 87 t-11.5 130t43 158.5q90 209 220 307.5t271 98.5q76 0 121 -56q4 12 10 25l7 14h227zM270 115q33 0 71 18.5t79 52.5q25 59 51.5 124t52 127.5t49 119.5t41.5 105q-18 29 -59 28q-76 0 -140.5 -64.5t-142.5 -224.5q-29 -59 -46 -111t-19 -91t12 -61.5t51 -22.5z" />
<glyph unicode="r" horiz-adv-x="512" d="M305 948q59 0 77.5 -46t-7.5 -111q-18 -49 -45 -82h180q-6 -18 -22.5 -57.5t-37 -90.5t-44 -106.5t-44 -104.5t-36 -85t-19.5 -48q-16 -39 4.5 -55.5t56 -10t76.5 37t68 85.5l35 -57q-20 -49 -56 -91t-80 -72.5t-94.5 -49t-99.5 -18.5t-85 16t-53.5 49t-15 82t28.5 113 l168 405q-37 -18 -78 -18q-57 0 -75.5 46t10.5 112q29 76 79 116.5t109 40.5z" />
<glyph unicode="s" horiz-adv-x="692" d="M379 639q63 12 118.5 -3t90.5 -53t46 -98.5t-11 -138.5q-31 -102 -80 -171t-112.5 -110.5t-137.5 -60t-154 -18.5q-66 0 -103.5 29.5t-52 75.5t-6 104.5t38.5 113.5q27 51 55.5 85t55.5 53.5t49.5 26.5t36.5 7q57 0 75.5 -46t-5.5 -111q-31 -76 -81 -117t-112 -41 q-10 0 -27 4q-4 -41 13.5 -67.5t58.5 -26.5q39 0 77 20.5t70.5 57t61.5 86t49 106.5q55 147 19.5 204.5t-152.5 22.5q-29 -8 -49.5 3.5t-30.5 34t-11 53t11 63.5q31 78 81 119t112 41q59 0 76.5 -46t-7.5 -114q-8 -18 -24 -46t-39 -42z" />
<glyph unicode="t" horiz-adv-x="409" d="M461 840l-256 -623q-16 -39 4 -55.5t56 -10t77 37t68 85.5l34 -57q-20 -49 -56 -91t-80 -72.5t-94 -49t-99 -18.5t-85 16t-54.5 49t-16.5 82t29 113l245 594h-116l57 104h102l25 62l246 47l-45 -109h184l-57 -104h-168z" />
<glyph unicode="u" horiz-adv-x="798" d="M594 217q-16 -39 4 -55.5t56 -10t77 37t68 85.5l35 -57q-20 -49 -56.5 -91t-80.5 -72.5t-94 -49t-99 -18.5q-63 0 -102.5 26.5t-49.5 79.5q-51 -49 -115.5 -77.5t-125.5 -28.5q-49 0 -85 16t-53.5 49t-15.5 82t29 113q10 25 31.5 75t44 105t42 104.5t29.5 71.5 q18 41 6 66.5t-59 25.5h-21l41 88q16 4 35 9q16 4 35.5 6t42.5 2q117 0 145.5 -64.5t-28.5 -199.5q-12 -31 -34 -84.5t-44 -106.5q-25 -61 -51 -127q-12 -35 1 -52.5t39.5 -17.5t61.5 17.5t66 52.5q2 8 4 14.5t6 14.5l221 536h227z" />
<glyph unicode="v" horiz-adv-x="718" d="M813 782q-12 -27 -38.5 -85t-57.5 -123.5t-57.5 -123t-36.5 -79.5q-86 -188 -197 -286.5t-289 -98.5q-49 0 -86 16t-57.5 49t-23.5 82t18 113q8 25 28.5 75t43 105t42 104.5t25.5 71.5q12 41 3 66.5t-56 25.5h-21l43 88q16 4 35 9q16 4 34.5 6t41.5 2q117 0 148.5 -66.5 t-25.5 -197.5q-78 -180 -105.5 -275.5t-9.5 -126.5q8 -12 23.5 -17t33 -4t35 9t31.5 22q0 37 8 71t32.5 98.5t74 174t133.5 295.5h227z" />
<glyph unicode="w" horiz-adv-x="1116" d="M1208 782q-12 -27 -39.5 -85t-57.5 -123.5t-56.5 -123t-36.5 -79.5q-43 -94 -91 -166t-106.5 -121t-130.5 -73.5t-160 -24.5q-66 0 -109.5 29.5t-53.5 88.5q-53 -53 -121 -85.5t-133 -32.5q-100 0 -139.5 65.5t14.5 194.5l147 356q16 41 4 66.5t-59 25.5h-19l41 88 q16 4 35 9q16 4 36 6t40 2q117 0 145.5 -64.5t-26.5 -199.5q-12 -31 -34 -84.5t-44 -106.5q-25 -61 -51 -127q-14 -35 0 -52.5t41.5 -17.5t62.5 18.5t66 55.5l8 25q8 25 27.5 75t42 105t43 104.5t26.5 71.5q14 41 4 66.5t-57 25.5h-21l43 88q16 4 35 9q16 4 36 6t40 2 q117 0 148.5 -66.5t-23.5 -197.5q-78 -180 -105.5 -275.5t-9.5 -126.5q16 -27 54 -22.5t67 32.5q0 37 8.5 71t34 98.5t74.5 174t133 295.5h227z" />
<glyph unicode="x" horiz-adv-x="753" d="M672 791q59 0 79.5 -47.5t-10.5 -110.5q-41 -86 -98 -127t-115 -57q41 -29 48.5 -87.5t-27.5 -144.5q-16 -39 4 -55.5t55 -10t77 37t69 85.5l34 -57q-20 -49 -56 -91t-80 -72.5t-94 -49t-99 -18.5q-100 0 -138 69.5t13 190.5q23 55 -4 83.5t-80 0.5l-62 -150 q-18 -43 -5.5 -67.5t59.5 -24.5h20l-43 -88q-16 -4 -35 -8q-31 -6 -75 -6q-219 0 -136 221q14 39 23.5 61.5t13.5 32.5q10 27 45 41l144 55q-55 68 -13 205q14 41 4 66.5t-57 25.5h-18l41 88q16 4 34 9q16 4 35 6t41 2q117 0 152 -59.5t-10 -149.5q-29 -59 -34 -86t3 -43 l110 39q-18 20 -20 56t14 77q29 76 79.5 117t111.5 41z" />
<glyph unicode="y" horiz-adv-x="765" d="M827 782q-16 -39 -37.5 -90t-45 -109.5t-48 -121t-49.5 -121.5q-55 -139 -119 -291q-78 -199 -206.5 -303t-286.5 -104q-66 0 -106 30.5t-54 77.5t-5 104.5t40 112.5q29 47 65 82q-18 35 -17 83t28 114q10 25 31.5 75t45 105t43 104.5t27.5 71.5q18 41 6 66.5t-59 25.5 h-21l43 88q16 4 35 9q16 4 34.5 6t41.5 2q117 0 146.5 -64.5t-27.5 -199.5q-12 -31 -34 -84.5t-44 -106.5q-25 -61 -51 -127q-12 -35 0 -52.5t37.5 -18.5t60.5 15.5t66 51.5l233 569h227zM113 -14q-45 0 -78 12q-27 -23 -51.5 -59.5t-36.5 -96.5q-12 -51 13.5 -80.5 t66.5 -29.5q39 0 78.5 28.5t75.5 73.5t67 101.5t51 111.5q-45 -29 -92 -45t-94 -16z" />
<glyph unicode="z" horiz-adv-x="608" d="M182 782h535l-6 -12l-82 -188l-398 -252q74 8 132.5 -10.5t92 -61.5t38 -107.5t-28.5 -146.5q-80 -197 -202 -279.5t-279 -82.5q-66 0 -104 29.5t-52 76.5t-6 105.5t37 113.5q27 51 55.5 84t55 52.5t49 27.5t36.5 8q59 0 78 -46t-8 -111q-29 -76 -79 -117t-114 -41 q-16 0 -26 2q-4 -41 14.5 -67.5t59.5 -26.5q39 0 76.5 21.5t70.5 58t61.5 86t49.5 106.5q43 117 16 178.5t-100 61.5q-25 0 -54.5 -8.5t-58.5 -24.5l-23 -14l-18 77q14 35 31.5 81t34.5 81l383 260h-304z" />
<glyph unicode="{" horiz-adv-x="837" d="M305 -414q-106 74 -143 151t-30 154.5t46 152.5t83 144.5t81 129t42 106.5t-35 77.5t-150 43.5l55 100q119 0 189.5 30t113.5 78t65.5 110.5t43 130t49 135t82 126t141.5 102.5t227 66l25 -112q-94 -31 -150.5 -92.5t-95.5 -136t-73.5 -155.5t-87 -150.5t-135.5 -121 t-218 -65.5q72 -33 100.5 -81t27.5 -106.5t-23.5 -123t-53 -132t-62.5 -134t-50.5 -126t-18.5 -110.5t35 -88z" />
<glyph unicode="|" d="M872 1421l-626 -1777h-152l625 1777h153z" />
<glyph unicode="}" horiz-adv-x="837" d="M625 1423q106 -74 144 -148.5t34 -147t-38 -142.5t-75 -133.5t-73.5 -117.5t-35.5 -96t39 -70.5t152 -41.5l-55 -100q-119 0 -191.5 -32t-118 -85t-72 -120.5t-51 -140.5t-56 -146.5t-88 -136t-146.5 -110.5t-230 -69l-24 113q94 31 152.5 96.5t102.5 147.5t84 171 t97 165.5t143.5 132t221.5 69.5q-94 43 -119 108.5t-9.5 143.5t55.5 161t71.5 162t41 147.5t-35.5 117.5z" />
<glyph unicode="~" horiz-adv-x="944" d="M129 340q70 96 163 155.5t187 73.5q63 8 88 -15.5t33 -54t15.5 -56t37.5 -21.5q31 4 61.5 26.5t53.5 49.5q27 31 53 67l74 -71q-45 -57 -98 -105q-47 -41 -111.5 -78t-140.5 -47q-51 -6 -79 2t-42 25.5t-19.5 39t-8.5 40t-10 30t-26 9.5q-29 -4 -57.5 -26t-50.5 -46 q-27 -29 -51 -64z" />
<glyph unicode="&#xa1;" horiz-adv-x="534" d="M426 1024q0 55 40 95t97 40t97 -40t40 -95q0 -57 -39.5 -97t-97.5 -40q-57 0 -97 40t-40 97zM39 201q39 88 97.5 172t116.5 156.5t108.5 131t76.5 93.5h72q-59 -117 -98 -232.5t-64.5 -210t-39 -157t-19.5 -72.5q-25 -51 -78 -69.5t-107 3.5q-51 25 -70.5 78.5t5.5 106.5 z" />
<glyph unicode="&#xa2;" horiz-adv-x="778" d="M674 915l-43 -120q63 -39 69.5 -126t-38.5 -175q-4 -8 -8.5 -15.5t-8.5 -13.5l-70 49q37 72 37 118t-16 68l-211 -579h21q43 0 89 14.5t88 38t76.5 55t57.5 66.5l35 -57q-47 -98 -153.5 -159t-254.5 -71l-49 -137h-111l49 137q-72 8 -122 44t-75.5 90.5t-25.5 124 t31 147.5q78 197 205 299t280 106l35 96h113zM272 412q-37 -98 -31.5 -162t46.5 -96l202 561q-33 -16 -64.5 -47t-60 -73t-52.5 -89t-40 -94z" />
<glyph unicode="&#xa3;" horiz-adv-x="983" d="M139 494h68l24 59h-75l30 72h70q45 106 107.5 189t138.5 140.5t161 87t175 29.5q72 0 117.5 -29.5t65 -76.5t14.5 -105.5t-36 -114.5q-27 -51 -55.5 -84.5t-56 -53t-50 -28t-36.5 -8.5q-59 0 -76.5 47.5t8.5 112.5q29 76 80 117t113 41q18 0 26 -2q6 14 4 30.5t-13 31 t-35.5 23.5t-63.5 9q-61 0 -115.5 -28.5t-99.5 -78t-82 -114t-66 -135.5h176l-28 -72h-174l-25 -59h182l-30 -72h-181l-94 -232q27 20 60.5 36t74.5 16q35 0 68 -18.5t65.5 -39t64.5 -38t67.5 -13.5t75.5 35t85 104l35 -57q-63 -111 -148 -172t-171 -61q-53 0 -89 21.5 t-62.5 48t-49.5 48t-51 21.5q-20 0 -43 -11.5t-44.5 -27.5t-41 -34.5t-31.5 -31.5l-8 -10l-10 -10h-150q27 63 55 133q25 59 55.5 136t63.5 157h-67z" />
<glyph unicode="&#xa4;" horiz-adv-x="921" d="M698 389q0 -37 -12 -70l70 -57l-117 -153l-57 86q-51 -29 -111 -29q-53 0 -99 22.5t-77 61.5l-186 -121l-19 154l156 73q-2 10 -2 33q0 41 16 84l-65 43l114 152l60 -76q23 10 48 17t54 7q53 0 99 -22.5t77 -61.5l219 119l21 -151l-193 -68q2 -10 3 -21.5t1 -21.5z M608 389q0 57 -40 97t-97 40t-97 -40t-40 -97q0 -55 40 -95t97 -40t97 40t40 95z" />
<glyph unicode="&#xa5;" horiz-adv-x="792" d="M154 477h114l4 12l-53 388q-4 41 -30.5 66.5t-73.5 25.5h-21l-8 88q14 4 31 8q14 4 32.5 6t40.5 2q117 0 181.5 -64.5t83.5 -201.5l28 -207q78 61 132.5 139t72.5 144q18 59 0 83.5t-84 8.5l31 82q16 2 35 6q16 4 34.5 6t40.5 2q47 0 86 -14.5t61.5 -41t26 -64.5 t-17.5 -85q-47 -104 -152.5 -195t-236.5 -153l-16 -41h129l-29 -71h-129l-25 -60h138l-31 -72h-137l-39 -96q-16 -43 -4 -68.5t59 -25.5h18l-40 -88q-16 -4 -35 -8q-16 -4 -36 -6t-40 -2q-119 0 -147.5 64.5t26.5 201.5l10 28h-106l28 72h109l25 60h-117z" />
<glyph unicode="&#xa6;" d="M516 408l-270 -764h-152l268 764h154zM442 637l277 784h153l-276 -784h-154z" />
<glyph unicode="&#xa7;" horiz-adv-x="858" d="M754 342q-45 -113 -160 -176q-6 -49 -35 -100q-27 -45 -66.5 -79t-87 -54.5t-98.5 -26.5t-100 4q-43 8 -74 32.5t-45 60.5t-10 79t33 92q31 55 71.5 73.5t71.5 0.5t35 -60.5t-21 -83.5q-23 -39 -60.5 -54t-68.5 3q-2 -29 21.5 -53.5t72.5 -32.5q57 -8 108.5 22.5 t74.5 84.5q25 57 -4 111.5t-95 97.5q-45 27 -77.5 59.5t-51 70.5t-19.5 82t19 93q45 109 160 176q6 57 35 102q27 45 66.5 79t87 54.5t98.5 26.5t100 -4q43 -10 74 -33.5t45 -59.5t10 -80t-33 -93q-31 -53 -71.5 -71.5t-71.5 -0.5t-35 59t21 82q23 41 60.5 56.5t68.5 -2.5 q2 29 -21.5 52t-72.5 32q-57 10 -108.5 -21t-74.5 -84q-25 -57 4 -111.5t95 -97.5q45 -27 77.5 -59.5t51 -71.5t19.5 -83t-19 -93zM461 528q-66 45 -94 113q-4 -4 -5.5 -10t-3.5 -10q-27 -68 7 -115t116 -105q66 -45 92 -112l11 22q27 68 -7 115t-116 102z" />
<glyph unicode="&#xa8;" horiz-adv-x="901" d="M406 1022q0 -51 -35 -86t-88 -35q-49 0 -86 35t-37 86q0 53 36.5 88t86.5 35q53 0 88 -35t35 -88zM713 1022q0 -51 -37 -86t-86 -35q-53 0 -88 35t-35 86q0 53 35 88t88 35q49 0 86 -35t37 -88z" />
<glyph unicode="&#xa9;" horiz-adv-x="1705" d="M1174 1153q160 0 253 -64.5t127.5 -169t17 -239.5t-77.5 -274.5t-158.5 -274.5t-224.5 -239.5t-275.5 -169t-311.5 -64.5t-254 64.5t-124.5 169t-13 239.5t81.5 274.5t161.5 274.5t224.5 239.5t271.5 169t302.5 64.5zM528 -258q137 0 265.5 56.5t240 149.5t201.5 212 t147.5 242.5t80 242.5t-2 212t-98.5 149.5t-209 56.5q-129 0 -252 -56.5t-232.5 -149.5t-198.5 -212t-148.5 -242.5t-83 -242.5t-3 -212t91 -149.5t201.5 -56.5zM1077 168q-25 -39 -58.5 -74t-78.5 -60.5t-101.5 -41t-125.5 -15.5q-141 0 -188.5 111t7.5 313 q31 111 82.5 197t117 145.5t143 91t161.5 31.5q59 0 96 -24.5t53.5 -63.5t11.5 -85t-30 -91q-23 -41 -46 -68.5t-44.5 -44t-40 -22.5t-28.5 -6q-47 0 -62.5 38t6.5 93q23 59 65 92t91 33h22q4 10 3.5 23.5t-10 24.5t-29 19.5t-52.5 8.5q-57 0 -105 -30t-87 -78t-69.5 -111.5 t-53.5 -131.5q-27 -78 -40 -145.5t-6 -116.5t39 -77.5t97 -28.5q74 0 134.5 42t97.5 99z" />
<glyph unicode="&#xaa;" horiz-adv-x="1234" d="M887 1399q80 0 121 -58q6 14 9 25.5t7 15.5h225q-6 -18 -24.5 -63t-43 -103.5t-51 -124t-50 -122t-41 -98.5t-21.5 -54q-16 -39 4 -55.5t55 -10t77 37t69 85.5l34 -57q-20 -49 -56 -91t-80 -72.5t-94 -49t-99 -18.5q-63 0 -103.5 26.5t-50.5 79.5q-59 -49 -119.5 -77.5 t-115.5 -28.5q-70 0 -114 31.5t-62.5 87t-11.5 130t44 158.5q88 209 219.5 307.5t272.5 98.5zM973 1262q-18 29 -60 28q-39 0 -72.5 -15t-67.5 -49t-68.5 -89.5t-73.5 -135.5q-31 -59 -48.5 -111t-19.5 -91t13.5 -61.5t50.5 -22.5t75.5 20.5t81.5 57.5q6 27 19 53z" />
<glyph unicode="&#xab;" horiz-adv-x="1216" d="M233 563l603 289l47 -117l-553 -260l237 -274l-131 -150l-284 377zM643 563l602 289l47 -117l-553 -260l238 -274l-131 -150l-285 377z" />
<glyph unicode="&#xac;" d="M162 457h577l-141 -336h-152l86 194h-430z" />
<glyph unicode="&#xad;" horiz-adv-x="552" d="M162 457h332l-60 -142h-332z" />
<glyph unicode="&#xae;" horiz-adv-x="1705" d="M1174 1153q160 0 253 -64.5t127.5 -169t17 -239.5t-77.5 -274.5t-158.5 -274.5t-224.5 -239.5t-275.5 -169t-311.5 -64.5t-254 64.5t-124.5 169t-13 239.5t81.5 274.5t161.5 274.5t224.5 239.5t271.5 169t302.5 64.5zM528 -258q137 0 265.5 56.5t240 149.5t201.5 212 t147.5 242.5t80 242.5t-2 212t-98.5 149.5t-209 56.5q-129 0 -252 -56.5t-232.5 -149.5t-198.5 -212t-148.5 -242.5t-83 -242.5t-3 -212t91 -149.5t201.5 -56.5zM930 27q-84 0 -101.5 61.5t13.5 151.5q23 80 25.5 113.5t-13.5 47.5q-59 -14 -94 -4l-94 -227 q-14 -31 -4 -50.5t43 -19.5h14l-29 -63q-14 -4 -26 -6t-25.5 -3t-28.5 -1q-166 0 -88 188l178 438l152 92q-33 -8 -68.5 -19t-71.5 -27.5t-68 -36t-56 -44.5l-29 31l76 107q72 29 150.5 42t177.5 13q109 0 164 -53t24 -150q-8 -29 -28.5 -54.5t-47 -48t-55.5 -39.5t-53 -26 l-15 -6q41 -16 57.5 -53t-5.5 -100q-29 -72 -21 -103t39 -31q25 0 60.5 21.5t62.5 67.5l22 -39q-14 -35 -40.5 -67t-58.5 -54.5t-67.5 -35.5t-70.5 -13zM934 758q-16 0 -27 -2l-116 -285q10 2 23 1t30 -3q55 0 96 45t61 104q20 68 -5 104t-62 36z" />
<glyph unicode="&#xaf;" d="M203 1137h577l-59 -142h-578z" />
<glyph unicode="&#xb0;" horiz-adv-x="563" d="M506 653q0 57 -40 97.5t-97 40.5t-97.5 -40t-40.5 -98q0 -55 40 -95t98 -40q57 0 97 40t40 95zM596 653q0 -45 -18.5 -86t-49 -71.5t-71.5 -48t-88 -17.5t-88 17.5t-72 48t-49.5 71.5t-18.5 86q0 47 18.5 88t49.5 72t72 49.5t88 18.5t88 -18.5t71.5 -49.5t49 -72 t18.5 -88z" />
<glyph unicode="&#xb1;" d="M670 797l-84 -197h215l-60 -141h-215l-82 -195h-151l82 195h-211l59 141h211l82 197h154zM59 170h578l-59 -141h-578z" />
<glyph unicode="&#xb2;" horiz-adv-x="641" d="M655 1067q92 0 138.5 -34t52.5 -86t-24.5 -117.5t-89 -128t-142.5 -114.5t-187 -81h289l-74 -178h-518l76 178h57q59 0 123 32.5t119 83t96 107.5t55.5 107.5t-4 83t-79.5 32.5q-23 0 -46.5 -7t-47.5 -17q27 -16 31.5 -51t-11.5 -80q-27 -66 -73 -103t-99 -37 q-51 0 -69.5 41t10.5 99q31 68 83 119t111.5 84.5t117.5 50t105 16.5z" />
<glyph unicode="&#xb3;" horiz-adv-x="641" d="M676 1049q92 -14 122.5 -71.5t12.5 -124.5t-81.5 -128t-160.5 -84q57 -29 83 -84t22 -119.5t-38 -129t-93.5 -113t-142.5 -69t-187 2.5q-88 20 -111.5 100t29.5 181q35 70 85 100.5t92 29.5t62.5 -32t-3.5 -86q-29 -66 -82.5 -98.5t-106.5 -16.5q-4 -10 -3 -24.5t5 -28.5 t14.5 -26.5t28.5 -16.5q59 -14 119.5 30t101.5 110.5t50.5 137t-31.5 111.5q-35 -12 -70 -19.5t-62.5 -6.5t-45 10.5t-17.5 25.5q0 27 48.5 49.5t168.5 8.5q63 29 101.5 72.5t49.5 86.5t-5.5 78t-61.5 43q-16 4 -36.5 0t-45.5 -10q25 -6 30 -41t-17 -76q-29 -55 -73 -77.5 t-80 -16.5t-51 38t13 87q35 63 83 103t98.5 62.5t99.5 30t86 1.5z" />
<glyph unicode="&#xb4;" d="M213 963l367 333l125 -217l-451 -196z" />
<glyph unicode="&#xb5;" horiz-adv-x="798" d="M594 217q-16 -39 4 -55.5t56 -10t77 37t68 85.5l35 -57q-20 -49 -56.5 -91t-80.5 -72.5t-94 -49t-99 -18.5q-63 0 -102.5 26.5t-49.5 79.5q-51 -49 -115.5 -77.5t-125.5 -28.5t-105 26l-45 -368h-188l360 958q18 41 6 66.5t-59 25.5h-21l41 88q16 4 35 9q16 4 35.5 6 t42.5 2q117 0 145.5 -64.5t-28.5 -199.5q-12 -31 -34 -84.5t-44 -106.5q-25 -61 -51 -127q-12 -35 1 -52.5t39.5 -17.5t61.5 17.5t66 52.5q2 8 4 14.5t6 14.5l221 536h227z" />
<glyph unicode="&#xb6;" horiz-adv-x="1093" d="M94 -356l340 970q-90 16 -132 63.5t-45 110t28.5 130t92 124t145.5 93t188 36.5h413l-59 -141h-51l-488 -1386h-151l485 1386h-127l-487 -1386h-152z" />
<glyph unicode="&#xb7;" horiz-adv-x="593" d="M444 449q0 -55 -39.5 -95.5t-97.5 -40.5q-57 0 -97 40t-40 96q0 57 40 97t97 40t97 -40t40 -97z" />
<glyph unicode="&#xb8;" horiz-adv-x="622" d="M250 -47l106 162l105 -19l-107 -162q23 -10 44.5 -21t41.5 -28q49 -37 65.5 -80t8.5 -83.5t-39 -74.5t-76 -53q-45 -18 -98 -19t-105.5 12.5t-101.5 40t-84 65.5l86 137q61 -47 122 -63.5t102.5 -11.5t55 26.5t-17.5 52.5q-29 27 -70.5 44.5t-86.5 31.5z" />
<glyph unicode="&#xb9;" horiz-adv-x="491" d="M84 408h131q14 37 42 104.5t56.5 138t53 131t34.5 82.5q16 37 5 59.5t-52 22.5h-18l37 80q14 2 30 6q14 2 32 4t36 2q104 0 130 -56t-23 -179q-10 -25 -32 -76t-46.5 -110.5t-48 -116t-37.5 -92.5h133l-33 -80h-463z" />
<glyph unicode="&#xba;" horiz-adv-x="675" d="M627 1040q68 0 116 -23.5t72.5 -69.5t22.5 -113.5t-39 -155.5q-150 -362 -430 -363q-145 0 -188.5 111t36.5 299q39 94 84 154.5t96.5 96.5t109 50t120.5 14zM606 702q47 123 47 194t-43 71q-53 0 -104 -75t-94 -181q-25 -59 -42.5 -117.5t-23.5 -106t3 -76t40 -28.5 q49 0 102.5 82.5t114.5 236.5z" />
<glyph unicode="&#xbb;" horiz-adv-x="1208" d="M678 340l-602 -289l-47 117l553 260l-238 274l131 150l285 -377zM1087 340l-602 -289l-47 117l553 260l-237 274l131 150l284 -377z" />
<glyph unicode="&#xbc;" horiz-adv-x="2267" d="M2126 500q-27 -61 -58.5 -139t-65.5 -159t-66.5 -160t-59.5 -142.5t-44 -107.5t-22 -54h-249l217 526q-43 -43 -92.5 -84t-98.5 -72.5t-97 -51t-87 -19.5q-55 0 -88 18.5t-40 55t14.5 91t74.5 124.5q20 27 58 76t78 101t76 98l54 69q35 47 31 74.5t-55 27.5h-23l80 100 q20 4 43 9q18 4 40.5 6t45.5 2q129 0 138 -70.5t-107 -224.5q-25 -35 -65 -85t-77 -97q-43 -55 -90 -115q-31 -43 -14.5 -50t58.5 12.5t98.5 61t107.5 97.5l35 82h250zM104 326h164l234 569q20 47 6 74.5t-66 27.5h-22l47 101q18 4 39 8q16 4 38.5 6t45.5 2 q129 0 161.5 -70.5t-30.5 -224.5q-12 -31 -38 -94t-56.5 -137t-60 -145.5t-48.5 -116.5h166l-41 -101h-580zM1735 1122l-1104 -1274h-172l1102 1274h174z" />
<glyph unicode="&#xbd;" horiz-adv-x="2224" d="M1874 924q115 0 172 -42t65.5 -107.5t-28.5 -145.5t-109.5 -158t-177 -144.5t-231.5 -103.5h356l-92 -223h-649l94 223h74q74 0 152.5 41t147 103.5t120 134t69.5 134t-4.5 103.5t-99.5 41q-27 0 -56.5 -8t-60.5 -22q33 -20 40 -64.5t-16 -99.5q-33 -82 -90 -128 t-125 -46q-63 0 -85.5 51t12.5 123q39 86 103.5 149.5t138 105.5t148.5 62.5t132 20.5zM104 326h164l234 569q20 47 6 74.5t-66 27.5h-22l47 101q18 4 39 8q16 4 38.5 6t45.5 2q129 0 161.5 -70.5t-30.5 -224.5q-12 -31 -38 -94t-56.5 -137t-60 -145.5t-48.5 -116.5h166 l-41 -101h-580zM1673 1122l-1104 -1274h-172l1102 1274h174z" />
<glyph unicode="&#xbe;" horiz-adv-x="2453" d="M846 1126q76 -12 119 -49t55 -87t-4.5 -107.5t-57 -110.5t-103 -95t-142.5 -61q72 -35 103.5 -104.5t25.5 -150t-48 -161.5t-116 -140.5t-177.5 -85t-234.5 2.5q-55 12 -90 45t-49 80.5t-5 105.5t42 120q43 86 105.5 125t114.5 36.5t77.5 -40t-2.5 -105.5 q-18 -41 -44 -72.5t-57.5 -51t-66.5 -25t-68 5.5q-4 -12 -4 -30.5t6 -37t18.5 -33t35.5 -20.5q49 -12 101 9.5t96 64.5t79 100t51.5 115.5t11 110.5t-39.5 85q-43 -16 -87.5 -24.5t-78 -6t-55 12.5t-21.5 31q0 16 13 33.5t45 28.5t84 14t128 -5q80 37 128 92.5t62.5 109.5 t-7 97t-78.5 53q-20 4 -46 0t-55 -14q29 -8 35 -51t-20 -94q-35 -68 -90.5 -96.5t-100.5 -21.5t-64.5 47t17.5 110q43 80 103.5 130t123 78.5t124 35.5t108.5 1zM2312 500q-25 -61 -57.5 -139t-66.5 -159t-66.5 -160t-59 -142.5t-44 -107.5t-21.5 -54h-250l217 526 q-43 -43 -92 -84t-98.5 -72.5t-97.5 -51t-87 -19.5q-55 0 -88 18.5t-40 55t14.5 91t74.5 124.5q20 27 58.5 76t78 101t75.5 98t55 69q35 47 30.5 74.5t-55.5 27.5h-23l80 100q20 4 43 9q18 4 41 6t45 2q129 0 138.5 -70.5t-107.5 -224.5q-25 -35 -64.5 -85t-76.5 -97 q-43 -55 -90 -115q-31 -43 -14.5 -50t58.5 12.5t98 61t108 97.5l34 82h250zM1921 1122l-1104 -1274h-172l1102 1274h174z" />
<glyph unicode="&#xbf;" horiz-adv-x="876" d="M678 1001q0 55 40 95.5t97 40.5t97 -40t40 -96q0 -57 -40 -97t-97 -40t-97 40t-40 97zM719 678q-70 -18 -141.5 -65.5t-131 -109t-101.5 -127t-53 -120.5t12.5 -91t96.5 -36q27 0 56.5 8t60.5 23q-33 20 -40 64t16 100q33 82 90 128t125 46q63 0 85.5 -51.5t-12.5 -122.5 q-39 -86 -104.5 -149.5t-139 -105.5t-147.5 -62.5t-131 -20.5q-125 0 -182.5 48t-57.5 122.5t51.5 164t141.5 170t215 142t272 82.5z" />
<glyph unicode="&#xc0;" horiz-adv-x="985" d="M1024 215q-16 -49 -51 -91t-79 -75t-93 -51t-99 -18q-100 0 -144 66.5t1 195.5l33 88h-260l-70 -152q-23 -55 -10.5 -74.5t59.5 -19.5h19l-66 -88q-23 -4 -45 -8q-20 -4 -41.5 -6t-42.5 -2q-117 0 -129 64.5t80 201.5q20 31 55 83t71 105t66.5 98.5t43.5 63.5 q80 111 142 199t120.5 149.5t121 94t140.5 32.5q49 0 87 -16.5t58.5 -49t22.5 -82t-21 -112.5l-209 -596q-14 -39 7.5 -56.5t56.5 -10t75 38t62 85.5zM627 434l143 404q18 53 12 82.5t-30.5 28.5t-66.5 -35.5t-93 -108.5q-53 -78 -107.5 -177.5t-101.5 -193.5h244z M1061 1157l-451 197l125 217l367 -334z" />
<glyph unicode="&#xc1;" horiz-adv-x="985" d="M1024 215q-16 -49 -51 -91t-79 -75t-93 -51t-99 -18q-100 0 -144 66.5t1 195.5l33 88h-260l-70 -152q-23 -55 -10.5 -74.5t59.5 -19.5h19l-66 -88q-23 -4 -45 -8q-20 -4 -41.5 -6t-42.5 -2q-117 0 -129 64.5t80 201.5q20 31 55 83t71 105t66.5 98.5t43.5 63.5 q80 111 142 199t120.5 149.5t121 94t140.5 32.5q49 0 87 -16.5t58.5 -49t22.5 -82t-21 -112.5l-209 -596q-14 -39 7.5 -56.5t56.5 -10t75 38t62 85.5zM627 434l143 404q18 53 12 82.5t-30.5 28.5t-66.5 -35.5t-93 -108.5q-53 -78 -107.5 -177.5t-101.5 -193.5h244zM760 1237 l366 334l125 -217l-450 -197z" />
<glyph unicode="&#xc2;" horiz-adv-x="985" d="M1024 215q-16 -49 -51 -91t-79 -75t-93 -51t-99 -18q-100 0 -144 66.5t1 195.5l33 88h-260l-70 -152q-23 -55 -10.5 -74.5t59.5 -19.5h19l-66 -88q-23 -4 -45 -8q-20 -4 -41.5 -6t-42.5 -2q-117 0 -129 64.5t80 201.5q20 31 55 83t71 105t66.5 98.5t43.5 63.5 q80 111 142 199t120.5 149.5t121 94t140.5 32.5q49 0 87 -16.5t58.5 -49t22.5 -82t-21 -112.5l-209 -596q-14 -39 7.5 -56.5t56.5 -10t75 38t62 85.5zM1169 1499l54 -295l-246 -2l12 215l-360 -239l-74 100l416 221h198zM627 434l143 404q18 53 12 82.5t-30.5 28.5 t-66.5 -35.5t-93 -108.5q-53 -78 -107.5 -177.5t-101.5 -193.5h244z" />
<glyph unicode="&#xc3;" horiz-adv-x="985" d="M1024 215q-16 -49 -51 -91t-79 -75t-93 -51t-99 -18q-100 0 -144 66.5t1 195.5l33 88h-260l-70 -152q-23 -55 -10.5 -74.5t59.5 -19.5h19l-66 -88q-23 -4 -45 -8q-20 -4 -41.5 -6t-42.5 -2q-117 0 -129 64.5t80 201.5q20 31 55 83t71 105t66.5 98.5t43.5 63.5 q80 111 142 199t120.5 149.5t121 94t140.5 32.5q49 0 87 -16.5t58.5 -49t22.5 -82t-21 -112.5l-209 -596q-14 -39 7.5 -56.5t56.5 -10t75 38t62 85.5zM578 1276q63 88 147 142.5t170 66.5q59 8 80.5 -13.5t30 -49t14.5 -51t35 -19.5t55.5 24.5t48.5 42.5q25 27 47 62l68 -66 q-39 -51 -90 -94q-43 -37 -101.5 -69.5t-126.5 -43.5q-47 -6 -72.5 2.5t-39 23.5t-17.5 34.5t-7 36t-9 26.5t-23 8q-27 -4 -52 -23.5t-46 -41.5q-25 -27 -47 -57zM627 434l143 404q18 53 12 82.5t-30.5 28.5t-66.5 -35.5t-93 -108.5q-53 -78 -107.5 -177.5t-101.5 -193.5 h244z" />
<glyph unicode="&#xc4;" horiz-adv-x="985" d="M1024 215q-16 -49 -51 -91t-79 -75t-93 -51t-99 -18q-100 0 -144 66.5t1 195.5l33 88h-260l-70 -152q-23 -55 -10.5 -74.5t59.5 -19.5h19l-66 -88q-23 -4 -45 -8q-20 -4 -41.5 -6t-42.5 -2q-117 0 -129 64.5t80 201.5q20 31 55 83t71 105t66.5 98.5t43.5 63.5 q80 111 142 199t120.5 149.5t121 94t140.5 32.5q49 0 87 -16.5t58.5 -49t22.5 -82t-21 -112.5l-209 -596q-14 -39 7.5 -56.5t56.5 -10t75 38t62 85.5zM627 434l143 404q18 53 12 82.5t-30.5 28.5t-66.5 -35.5t-93 -108.5q-53 -78 -107.5 -177.5t-101.5 -193.5h244zM872 1276 q0 -51 -34.5 -86t-87.5 -35q-49 0 -86 35t-37 86q0 53 36.5 88t86.5 35q53 0 87.5 -35t34.5 -88zM1180 1276q0 -51 -37 -86t-86 -35q-53 0 -88 35t-35 86q0 53 35 88t88 35q49 0 86 -35t37 -88z" />
<glyph unicode="&#xc5;" horiz-adv-x="985" d="M1024 215q-16 -49 -51 -91t-79 -75t-93 -51t-99 -18q-100 0 -144 66.5t1 195.5l33 88h-260l-70 -152q-23 -55 -10.5 -74.5t59.5 -19.5h19l-66 -88q-23 -4 -45 -8q-20 -4 -41.5 -6t-42.5 -2q-117 0 -129 64.5t80 201.5q20 31 55 83t71 105t66.5 98.5t43.5 63.5 q80 111 142 199t120.5 149.5t121 94t140.5 32.5q49 0 87 -16.5t58.5 -49t22.5 -82t-21 -112.5l-209 -596q-14 -39 7.5 -56.5t56.5 -10t75 38t62 85.5zM1157 1296q0 -41 -16.5 -77.5t-45 -64.5t-65.5 -44t-80 -16t-79.5 16t-65.5 44t-45.5 64.5t-16.5 77.5q0 43 16.5 81 t45.5 65.5t65.5 44t79.5 16.5t80 -16.5t65.5 -44t45 -65.5t16.5 -81zM627 434l143 404q18 53 12 82.5t-30.5 28.5t-66.5 -35.5t-93 -108.5q-53 -78 -107.5 -177.5t-101.5 -193.5h244zM1075 1296q0 53 -35.5 89t-89.5 36q-53 0 -89 -35.5t-36 -89.5q0 -51 36 -86.5t89 -35.5 t89 35.5t36 86.5z" />
<glyph unicode="&#xc6;" horiz-adv-x="1386" d="M616 330h-284l-70 -152q-23 -55 -10.5 -74.5t59.5 -19.5h19l-66 -88q-23 -4 -45 -8q-20 -4 -41.5 -6t-42.5 -2q-117 0 -129 64.5t80 201.5q20 31 55 83t71 105t66.5 98.5t43.5 63.5q80 111 142 199t120.5 149.5t121 94t140.5 32.5q51 0 88 -18q49 10 103.5 14t121.5 4 q41 0 92.5 -6t111.5 -10t126.5 -2t140.5 18l-76 -172q-59 -35 -112 -24.5t-105.5 37t-105.5 55t-109 28.5h-4l-160 -383h275l-37 -104h-281q-37 -90 -71.5 -173t-59.5 -147q27 20 61 37t75 17q35 0 70.5 -18.5t72.5 -39t75 -38t77.5 -13.5t82.5 35t88 104l35 -57 q-63 -111 -148 -172t-171 -61q-53 0 -95 21.5t-77 48t-63.5 48t-57.5 21.5q-20 0 -43 -11.5t-44.5 -27.5t-40.5 -34.5t-32 -31.5l-8 -10l-10 -10h-150zM592 805q-53 -78 -107.5 -177.5t-101.5 -193.5h276l166 406q2 47 -17.5 73.5t-52 25.5t-75.5 -32.5t-88 -101.5z" />
<glyph unicode="&#xc7;" horiz-adv-x="770" d="M131 -119l66 101q-135 27 -175 159.5t19 358.5q37 135 100.5 241.5t145.5 179t178 111.5t199 39q72 0 117.5 -29.5t65 -76.5t14.5 -105.5t-36 -114.5q-27 -51 -55.5 -84.5t-56 -53t-50 -28t-36.5 -8.5q-59 0 -77 47.5t9 112.5q29 76 80 117t113 41q18 0 26 -2 q6 14 4 30.5t-13 31t-35.5 23.5t-63.5 9q-72 0 -130.5 -36t-106.5 -96.5t-86 -138t-66 -161.5q-33 -96 -49.5 -180t-7.5 -145.5t49 -96.5t120 -35q92 0 166 52.5t119 123.5l35 -57q-29 -45 -67 -85t-87 -71.5t-110.5 -51t-137.5 -26.5l-75 -114q23 -10 44 -21.5t42 -27.5 q49 -37 65 -80t8 -84t-38.5 -75t-75.5 -52t-98.5 -19.5t-105.5 12t-101.5 40t-84.5 65.5l86 137q61 -47 122 -63.5t103 -11t55 27t-17 51.5q-29 27 -71 44.5t-87 31.5z" />
<glyph unicode="&#xc8;" horiz-adv-x="909" d="M1077 899q-59 -35 -112.5 -24.5t-105.5 37t-105.5 55t-108.5 28.5h-4l-160 -383h275l-37 -104h-281q-37 -90 -71.5 -173t-59.5 -147q27 20 60.5 37t74.5 17q35 0 71 -18.5t73 -39t74.5 -38t77.5 -13.5t83 35t88 104l35 -57q-63 -111 -148 -172t-171 -61q-53 0 -95.5 21.5 t-77 48t-63.5 48t-57 21.5q-20 0 -43 -11.5t-44.5 -27.5t-41 -34.5t-31.5 -31.5l-8 -10l-10 -10h-150l350 856l217 135q-41 -8 -91 -24.5t-101 -39t-98.5 -53t-83.5 -67.5l-41 43l106 147q51 20 98.5 35.5t96.5 25t103 13.5t122 4q41 0 92 -6t111.5 -10t127 -2t140.5 18z M950 1104l-450 196l125 218l366 -334z" />
<glyph unicode="&#xc9;" horiz-adv-x="909" d="M1077 899q-59 -35 -112.5 -24.5t-105.5 37t-105.5 55t-108.5 28.5h-4l-160 -383h275l-37 -104h-281q-37 -90 -71.5 -173t-59.5 -147q27 20 60.5 37t74.5 17q35 0 71 -18.5t73 -39t74.5 -38t77.5 -13.5t83 35t88 104l35 -57q-63 -111 -148 -172t-171 -61q-53 0 -95.5 21.5 t-77 48t-63.5 48t-57 21.5q-20 0 -43 -11.5t-44.5 -27.5t-41 -34.5t-31.5 -31.5l-8 -10l-10 -10h-150l350 856l217 135q-41 -8 -91 -24.5t-101 -39t-98.5 -53t-83.5 -67.5l-41 43l106 147q51 20 98.5 35.5t96.5 25t103 13.5t122 4q41 0 92 -6t111.5 -10t127 -2t140.5 18z M555 1202l367 334l125 -217l-451 -197z" />
<glyph unicode="&#xca;" horiz-adv-x="909" d="M1077 899q-59 -35 -112.5 -24.5t-105.5 37t-105.5 55t-108.5 28.5h-4l-160 -383h275l-37 -104h-281q-37 -90 -71.5 -173t-59.5 -147q27 20 60.5 37t74.5 17q35 0 71 -18.5t73 -39t74.5 -38t77.5 -13.5t83 35t88 104l35 -57q-63 -111 -148 -172t-171 -61q-53 0 -95.5 21.5 t-77 48t-63.5 48t-57 21.5q-20 0 -43 -11.5t-44.5 -27.5t-41 -34.5t-31.5 -31.5l-8 -10l-10 -10h-150l350 856l217 135q-41 -8 -91 -24.5t-101 -39t-98.5 -53t-83.5 -67.5l-41 43l106 147q51 20 98.5 35.5t96.5 25t103 13.5t122 4q41 0 92 -6t111.5 -10t127 -2t140.5 18z M1040 1438l54 -295l-246 -2l12 215l-360 -240l-74 101l416 221h198z" />
<glyph unicode="&#xcb;" horiz-adv-x="909" d="M1077 899q-59 -35 -112.5 -24.5t-105.5 37t-105.5 55t-108.5 28.5h-4l-160 -383h275l-37 -104h-281q-37 -90 -71.5 -173t-59.5 -147q27 20 60.5 37t74.5 17q35 0 71 -18.5t73 -39t74.5 -38t77.5 -13.5t83 35t88 104l35 -57q-63 -111 -148 -172t-171 -61q-53 0 -95.5 21.5 t-77 48t-63.5 48t-57 21.5q-20 0 -43 -11.5t-44.5 -27.5t-41 -34.5t-31.5 -31.5l-8 -10l-10 -10h-150l350 856l217 135q-41 -8 -91 -24.5t-101 -39t-98.5 -53t-83.5 -67.5l-41 43l106 147q51 20 98.5 35.5t96.5 25t103 13.5t122 4q41 0 92 -6t111.5 -10t127 -2t140.5 18z M715 1282q0 -51 -35 -86t-88 -35q-49 0 -86 35t-37 86q0 53 37 88t86 35q53 0 88 -35t35 -88zM1022 1282q0 -51 -37 -86t-86 -35q-53 0 -88 35t-35 86q0 53 35 88t88 35q49 0 86 -35t37 -88z" />
<glyph unicode="&#xcc;" horiz-adv-x="516" d="M635 981h-76l-309 -766q-20 -51 6.5 -67.5t72.5 -6t99 44t88 86.5l35 -57q-29 -53 -73 -96t-94 -74t-102.5 -48t-101.5 -17t-89 17t-61.5 50t-22.5 82t26 113q4 12 22.5 56t44 106.5t56 139.5t62.5 154.5t61.5 151.5t52.5 131h-88l37 90h391zM635 1157l-451 197l125 217 l367 -334z" />
<glyph unicode="&#xcd;" horiz-adv-x="516" d="M635 981h-76l-309 -766q-20 -51 6.5 -67.5t72.5 -6t99 44t88 86.5l35 -57q-29 -53 -73 -96t-94 -74t-102.5 -48t-101.5 -17t-89 17t-61.5 50t-22.5 82t26 113q4 12 22.5 56t44 106.5t56 139.5t62.5 154.5t61.5 151.5t52.5 131h-88l37 90h391zM397 1237l367 334l125 -217 l-451 -197z" />
<glyph unicode="&#xce;" horiz-adv-x="516" d="M635 981h-76l-309 -766q-20 -51 6.5 -67.5t72.5 -6t99 44t88 86.5l35 -57q-29 -53 -73 -96t-94 -74t-102.5 -48t-101.5 -17t-89 17t-61.5 50t-22.5 82t26 113q4 12 22.5 56t44 106.5t56 139.5t62.5 154.5t61.5 151.5t52.5 131h-88l37 90h391zM803 1499l53 -295l-246 -2 l13 215l-361 -239l-74 100l416 221h199z" />
<glyph unicode="&#xcf;" horiz-adv-x="516" d="M559 981l-309 -766q-20 -51 6.5 -67.5t72.5 -6t99 44t88 86.5l35 -57q-29 -53 -73 -96t-94 -74t-102.5 -48t-101.5 -17t-89 17t-61.5 50t-22.5 82t26 113q4 12 22.5 56t44 106.5t56 139.5t62.5 154.5t61.5 151.5t52.5 131h-88l37 90h391l-37 -90h-76zM459 1276 q0 -51 -35 -86t-88 -35q-49 0 -86 35t-37 86q0 53 37 88t86 35q53 0 88 -35t35 -88zM766 1276q0 -51 -37 -86t-86 -35q-53 0 -88 35t-35 86q0 53 35 88t88 35q49 0 86 -35t37 -88z" />
<glyph unicode="&#xd0;" horiz-adv-x="976" d="M129 526h92l133 326l199 123q-94 -23 -193.5 -66t-162.5 -106l-41 43l106 147q104 43 213 60.5t244 17.5q178 0 250.5 -125t5.5 -375q-33 -119 -87 -232.5t-136 -199.5t-197 -131t-270 -26q-41 6 -62 14h-219l180 440h-92zM702 995q-14 0 -29.5 -1t-31.5 -3l-192 -465 h106l-37 -90h-106l-148 -358q14 -4 28.5 -8t35.5 -7q68 -8 129 31t113.5 106.5t93.5 152.5t69 169q35 104 51.5 190.5t13.5 150t-27 98t-69 34.5z" />
<glyph unicode="&#xd1;" horiz-adv-x="987" d="M1081 868q-10 -25 -29.5 -66.5t-43 -95t-51 -114t-54.5 -119.5q-63 -141 -135 -303q-20 -61 -1 -85t85 -7l-31 -80q-18 -6 -43 -10q-23 -4 -52.5 -6t-66.5 -2q-117 0 -177 64.5t-70 201.5l-37 485q-33 -86 -62.5 -174t-52 -165t-37 -136t-18.5 -86q-8 -61 5 -86t79 -8 l-31 -80q-16 -4 -35 -8q-16 -4 -35.5 -6t-40.5 -2q-96 0 -128.5 56t8.5 150q10 23 29.5 66t43 96t51 113.5t54.5 120.5q63 139 135 301q4 14 6 25.5t4 21.5q-27 39 -82 39h-20v88q14 4 31 8q14 4 32.5 6t40.5 2q117 0 176.5 -64.5t69.5 -201.5q2 -23 5 -75t8 -117.5 t10.5 -138.5t10.5 -135t8 -107.5t3 -55.5q4 -31 14 -49l228 756q20 61 0.5 84.5t-84.5 7.5l30 80q16 4 35 8q16 4 35 6t41 2q96 0 138 -55.5t1 -149.5zM451 1221q63 88 147 142t170 67q59 8 80.5 -13.5t30 -49.5t14.5 -51.5t35 -19.5t55.5 24.5t48.5 43.5q25 27 47 61 l68 -65q-39 -51 -90 -94q-43 -37 -101.5 -70t-126.5 -43q-47 -6 -72.5 2t-38.5 23.5t-17.5 35t-7.5 36t-9 26.5t-22 8q-27 -4 -52.5 -23.5t-46.5 -41.5q-25 -27 -47 -58z" />
<glyph unicode="&#xd2;" horiz-adv-x="942" d="M680 1071q84 0 146.5 -31.5t96 -94t34.5 -157t-37 -217.5q-37 -119 -92.5 -227t-132.5 -190t-177 -130.5t-229 -48.5q-90 0 -153.5 33t-97.5 95.5t-33 156.5t42 217q39 115 89 221.5t123 189.5t175.5 133t245.5 50zM672 522q33 98 55.5 183.5t25.5 150t-16.5 101 t-70.5 36.5q-55 0 -108.5 -42t-101.5 -108.5t-89 -150.5t-70 -168q-33 -96 -56.5 -180t-26.5 -146.5t17.5 -98.5t73.5 -36q59 0 113.5 41t100.5 105.5t85 146.5t68 166zM879 1137l-451 196l125 217l367 -333z" />
<glyph unicode="&#xd3;" horiz-adv-x="942" d="M680 1071q84 0 146.5 -31.5t96 -94t34.5 -157t-37 -217.5q-37 -119 -92.5 -227t-132.5 -190t-177 -130.5t-229 -48.5q-90 0 -153.5 33t-97.5 95.5t-33 156.5t42 217q39 115 89 221.5t123 189.5t175.5 133t245.5 50zM672 522q33 98 55.5 183.5t25.5 150t-16.5 101 t-70.5 36.5q-55 0 -108.5 -42t-101.5 -108.5t-89 -150.5t-70 -168q-33 -96 -56.5 -180t-26.5 -146.5t17.5 -98.5t73.5 -36q59 0 113.5 41t100.5 105.5t85 146.5t68 166zM535 1217l366 333l125 -217l-451 -196z" />
<glyph unicode="&#xd4;" horiz-adv-x="942" d="M680 1071q84 0 146.5 -31.5t96 -94t34.5 -157t-37 -217.5q-37 -119 -92.5 -227t-132.5 -190t-177 -130.5t-229 -48.5q-90 0 -153.5 33t-97.5 95.5t-33 156.5t42 217q39 115 89 221.5t123 189.5t175.5 133t245.5 50zM672 522q33 98 55.5 183.5t25.5 150t-16.5 101 t-70.5 36.5q-55 0 -108.5 -42t-101.5 -108.5t-89 -150.5t-70 -168q-33 -96 -56.5 -180t-26.5 -146.5t17.5 -98.5t73.5 -36q59 0 113.5 41t100.5 105.5t85 146.5t68 166zM995 1438l54 -295l-246 -2l12 215l-360 -240l-74 101l416 221h198z" />
<glyph unicode="&#xd5;" horiz-adv-x="942" d="M680 1071q84 0 146.5 -31.5t96 -94t34.5 -157t-37 -217.5q-37 -119 -92.5 -227t-132.5 -190t-177 -130.5t-229 -48.5q-90 0 -153.5 33t-97.5 95.5t-33 156.5t42 217q39 115 89 221.5t123 189.5t175.5 133t245.5 50zM672 522q33 98 55.5 183.5t25.5 150t-16.5 101 t-70.5 36.5q-55 0 -108.5 -42t-101.5 -108.5t-89 -150.5t-70 -168q-33 -96 -56.5 -180t-26.5 -146.5t17.5 -98.5t73.5 -36q59 0 113.5 41t100.5 105.5t85 146.5t68 166zM422 1196q63 88 147 142.5t170 66.5q59 8 81 -13.5t30 -49t14 -51t35 -19.5t55.5 24.5t49.5 42.5 q25 27 47 62l67 -66q-39 -51 -90 -94q-43 -37 -101.5 -69.5t-125.5 -43.5q-47 -6 -73 2.5t-39 23.5t-17 34.5t-7 36t-9.5 27t-22.5 8.5q-27 -4 -52.5 -23.5t-45.5 -42.5q-25 -27 -48 -57z" />
<glyph unicode="&#xd6;" horiz-adv-x="942" d="M680 1071q84 0 146.5 -31.5t96 -94t34.5 -157t-37 -217.5q-37 -119 -92.5 -227t-132.5 -190t-177 -130.5t-229 -48.5q-90 0 -153.5 33t-97.5 95.5t-33 156.5t42 217q39 115 89 221.5t123 189.5t175.5 133t245.5 50zM672 522q33 98 55.5 183.5t25.5 150t-16.5 101 t-70.5 36.5q-55 0 -108.5 -42t-101.5 -108.5t-89 -150.5t-70 -168q-33 -96 -56.5 -180t-26.5 -146.5t17.5 -98.5t73.5 -36q59 0 113.5 41t100.5 105.5t85 146.5t68 166zM696 1257q0 -51 -34.5 -85.5t-88.5 -34.5q-49 0 -85.5 34.5t-36.5 85.5q0 53 36.5 88t85.5 35 q53 0 88 -35t35 -88zM1004 1257q0 -51 -37 -85.5t-86 -34.5q-53 0 -88 34.5t-35 85.5q0 53 34.5 88t88.5 35q49 0 86 -35t37 -88z" />
<glyph unicode="&#xd7;" horiz-adv-x="921" d="M469 430l276 156l17 -125l-232 -103l123 -96l-96 -127l-111 172l-268 -155l-14 127l219 104l-133 90l94 125z" />
<glyph unicode="&#xd8;" horiz-adv-x="942" d="M680 1071q111 0 182 -55l64 71h116l-122 -139q35 -63 36.5 -157.5t-36.5 -219.5q-37 -119 -92.5 -227t-132.5 -190t-177 -130.5t-229 -48.5q-113 0 -187 52l-67 -78h-115l125 141q-39 63 -40 159.5t42 227.5q39 115 89 221.5t123 189.5t175.5 133t245.5 50zM297 524 q-43 -121 -68 -225l523 592q-2 47 -22.5 74.5t-63.5 27.5q-55 0 -108.5 -42t-101.5 -108.5t-89 -150.5t-70 -168zM672 522q18 59 34.5 113.5t26.5 103.5l-518 -587q4 -41 25.5 -65t64.5 -24q59 0 113.5 41t100.5 105.5t85 146.5t68 166z" />
<glyph unicode="&#xd9;" horiz-adv-x="960" d="M551 266q-43 -61 -91 -113.5t-97.5 -90t-99.5 -60t-101 -22.5q-119 0 -147.5 64.5t26.5 201.5q8 20 28.5 70.5t47 115t55.5 135t54.5 134t45 110.5t27.5 66q16 41 4 66.5t-59 25.5h-21l43 88q16 4 35 8q16 4 35.5 6t40.5 2q117 0 146.5 -64.5t-25.5 -201.5l-258 -629 q-18 -47 -5 -61.5t48.5 3t89 65.5t115 124t126 179.5t121.5 232.5l64 156q18 41 6 66.5t-60 25.5h-20l41 88q16 4 35 8q16 4 35.5 6t42.5 2q117 0 145.5 -64.5t-27.5 -201.5l-239 -592q-16 -41 4 -58.5t55 -10t77 39t69 86.5l34 -57q-20 -49 -56 -91t-80 -75t-94 -51 t-99 -18t-85 17t-54.5 50t-16.5 82t29 113zM825 1128l-450 197l125 217l366 -334z" />
<glyph unicode="&#xda;" horiz-adv-x="960" d="M551 266q-43 -61 -91 -113.5t-97.5 -90t-99.5 -60t-101 -22.5q-119 0 -147.5 64.5t26.5 201.5q8 20 28.5 70.5t47 115t55.5 135t54.5 134t45 110.5t27.5 66q16 41 4 66.5t-59 25.5h-21l43 88q16 4 35 8q16 4 35.5 6t40.5 2q117 0 146.5 -64.5t-25.5 -201.5l-258 -629 q-18 -47 -5 -61.5t48.5 3t89 65.5t115 124t126 179.5t121.5 232.5l64 156q18 41 6 66.5t-60 25.5h-20l41 88q16 4 35 8q16 4 35.5 6t42.5 2q117 0 145.5 -64.5t-27.5 -201.5l-239 -592q-16 -41 4 -58.5t55 -10t77 39t69 86.5l34 -57q-20 -49 -56 -91t-80 -75t-94 -51 t-99 -18t-85 17t-54.5 50t-16.5 82t29 113zM545 1190l366 334l125 -217l-450 -197z" />
<glyph unicode="&#xdb;" horiz-adv-x="960" d="M551 266q-43 -61 -91 -113.5t-97.5 -90t-99.5 -60t-101 -22.5q-119 0 -147.5 64.5t26.5 201.5q8 20 28.5 70.5t47 115t55.5 135t54.5 134t45 110.5t27.5 66q16 41 4 66.5t-59 25.5h-21l43 88q16 4 35 8q16 4 35.5 6t40.5 2q117 0 146.5 -64.5t-25.5 -201.5l-258 -629 q-18 -47 -5 -61.5t48.5 3t89 65.5t115 124t126 179.5t121.5 232.5l64 156q18 41 6 66.5t-60 25.5h-20l41 88q16 4 35 8q16 4 35.5 6t42.5 2q117 0 145.5 -64.5t-27.5 -201.5l-239 -592q-16 -41 4 -58.5t55 -10t77 39t69 86.5l34 -57q-20 -49 -56 -91t-80 -75t-94 -51 t-99 -18t-85 17t-54.5 50t-16.5 82t29 113zM979 1466l53 -295l-246 -2l13 215l-361 -239l-73 100l415 221h199z" />
<glyph unicode="&#xdc;" horiz-adv-x="960" d="M551 266q-43 -61 -91 -113.5t-97.5 -90t-99.5 -60t-101 -22.5q-119 0 -147.5 64.5t26.5 201.5q8 20 28.5 70.5t47 115t55.5 135t54.5 134t45 110.5t27.5 66q16 41 4 66.5t-59 25.5h-21l43 88q16 4 35 8q16 4 35.5 6t40.5 2q117 0 146.5 -64.5t-25.5 -201.5l-258 -629 q-18 -47 -5 -61.5t48.5 3t89 65.5t115 124t126 179.5t121.5 232.5l64 156q18 41 6 66.5t-60 25.5h-20l41 88q16 4 35 8q16 4 35.5 6t42.5 2q117 0 145.5 -64.5t-27.5 -201.5l-239 -592q-16 -41 4 -58.5t55 -10t77 39t69 86.5l34 -57q-20 -49 -56 -91t-80 -75t-94 -51 t-99 -18t-85 17t-54.5 50t-16.5 82t29 113zM672 1249q0 -51 -35 -86t-88 -35q-49 0 -86 35t-37 86q0 53 37 88t86 35q53 0 88 -35t35 -88zM979 1249q0 -51 -37 -86t-86 -35q-53 0 -88 35t-35 86q0 53 35 88t88 35q49 0 86 -35t37 -88z" />
<glyph unicode="&#xdd;" horiz-adv-x="659" d="M109 1073q117 0 181 -64.5t83 -201.5l28 -207q78 61 132.5 139t72.5 144q18 59 0 83.5t-84 8.5l31 82q16 2 35 6q16 4 34.5 6t41.5 2q47 0 85.5 -14.5t61.5 -41t26 -64.5t-18 -85q-47 -104 -152.5 -195t-236.5 -153l-139 -340q-16 -43 -4 -68.5t59 -25.5h19l-41 -88 q-16 -4 -35 -8q-16 -4 -36 -6t-40 -2q-119 0 -147.5 64.5t26.5 201.5l98 243l-53 388q-4 41 -30.5 66.5t-73.5 25.5h-21l-8 88q14 4 31 8q14 4 32.5 6t41.5 2zM328 1210l366 334l125 -217l-450 -197z" />
<glyph unicode="&#xde;" d="M272 178q-16 -43 -3.5 -68.5t59.5 -25.5h20l-43 -88q-16 -4 -35 -8q-16 -4 -35.5 -6t-39.5 -2q-117 0 -147 64.5t26 201.5l202 499q-59 -25 -112 -55.5t-92 -68.5l-41 43l106 147q94 37 191 55q0 6 4 11q18 41 5 66.5t-61 25.5h-18l41 88q16 4 35 8q16 4 35.5 6t40.5 2 q193 0 147 -184h39q74 0 133 -29t94 -82t40 -128t-27 -165q-31 -82 -83.5 -148.5t-125 -109.5t-161.5 -56t-194 9v-2zM309 268q59 -4 110.5 20.5t93.5 65.5t72.5 93.5t51.5 101.5q43 113 26.5 188.5t-106.5 75.5q-16 0 -25 -2q-2 -2 -2 -4z" />
<glyph unicode="&#xdf;" horiz-adv-x="849" d="M799 797q-33 -61 -75 -100.5t-81 -55.5q45 -6 80 -29.5t56.5 -61.5t25.5 -89t-14 -115q-31 -102 -80 -171t-111.5 -110.5t-136.5 -60t-154 -18.5q-66 0 -104.5 30.5t-52.5 77.5l-105 -256q-16 -41 -4 -66.5t57 -25.5h21l-41 -88q-16 -4 -35 -8q-16 -4 -35.5 -6t-40.5 -2 q-117 0 -145.5 64.5t24.5 199.5l330 807q78 201 208 304t286 103q66 0 104.5 -29.5t54 -75.5t6.5 -104.5t-38 -113.5zM299 449q25 18 46.5 25t35.5 7q59 0 77.5 -46t-7.5 -111q-29 -76 -80.5 -117t-112.5 -41q-8 0 -13 1t-14 3q-4 -41 13.5 -67.5t58.5 -26.5q39 0 77 20.5 t71.5 57t61.5 86t48 106.5q55 147 12 202.5t-143 24.5l29 68q176 45 260 219q14 29 17 59.5t-3 55t-20.5 40t-34.5 15.5q-39 0 -78 -27.5t-75 -72.5t-66.5 -102.5t-50.5 -114.5z" />
<glyph unicode="&#xe0;" d="M528 799q80 0 121 -58q6 14 9.5 25.5t7.5 15.5h225q-6 -18 -24.5 -63t-43 -103.5t-51.5 -123t-50.5 -122t-40.5 -99.5t-22 -54q-16 -39 4.5 -55.5t55.5 -10t77 37t68 85.5l35 -57q-20 -49 -56 -91t-80 -72.5t-94.5 -49t-99.5 -18.5q-63 0 -103 26.5t-50 79.5 q-59 -49 -119.5 -77.5t-116.5 -28.5q-70 0 -113.5 31.5t-62 87t-11.5 130t44 158.5q88 209 219 307.5t272 98.5zM614 662q-18 29 -59 28q-39 0 -72.5 -15.5t-67.5 -49t-69 -89t-74 -135.5q-31 -59 -48 -111t-19 -91t13 -61.5t50 -22.5t76 20.5t82 57.5q6 27 18 53zM870 883 l-450 196l125 217l366 -333z" />
<glyph unicode="&#xe1;" d="M528 799q80 0 121 -58q6 14 9.5 25.5t7.5 15.5h225q-6 -18 -24.5 -63t-43 -103.5t-51.5 -123t-50.5 -122t-40.5 -99.5t-22 -54q-16 -39 4.5 -55.5t55.5 -10t77 37t68 85.5l35 -57q-20 -49 -56 -91t-80 -72.5t-94.5 -49t-99.5 -18.5q-63 0 -103 26.5t-50 79.5 q-59 -49 -119.5 -77.5t-116.5 -28.5q-70 0 -113.5 31.5t-62 87t-11.5 130t44 158.5q88 209 219 307.5t272 98.5zM614 662q-18 29 -59 28q-39 0 -72.5 -15.5t-67.5 -49t-69 -89t-74 -135.5q-31 -59 -48 -111t-19 -91t13 -61.5t50 -22.5t76 20.5t82 57.5q6 27 18 53zM498 963 l366 333l125 -217l-450 -196z" />
<glyph unicode="&#xe2;" d="M528 799q80 0 121 -58q6 14 9.5 25.5t7.5 15.5h225q-6 -18 -24.5 -63t-43 -103.5t-51.5 -123t-50.5 -122t-40.5 -99.5t-22 -54q-16 -39 4.5 -55.5t55.5 -10t77 37t68 85.5l35 -57q-20 -49 -56 -91t-80 -72.5t-94.5 -49t-99.5 -18.5q-63 0 -103 26.5t-50 79.5 q-59 -49 -119.5 -77.5t-116.5 -28.5q-70 0 -113.5 31.5t-62 87t-11.5 130t44 158.5q88 209 219 307.5t272 98.5zM614 662q-18 29 -59 28q-39 0 -72.5 -15.5t-67.5 -49t-69 -89t-74 -135.5q-31 -59 -48 -111t-19 -91t13 -61.5t50 -22.5t76 20.5t82 57.5q6 27 18 53zM936 1225 l53 -295l-246 -2l13 215l-361 -240l-73 101l415 221h199z" />
<glyph unicode="&#xe3;" d="M528 799q80 0 121 -58q6 14 9.5 25.5t7.5 15.5h225q-6 -18 -24.5 -63t-43 -103.5t-51.5 -123t-50.5 -122t-40.5 -99.5t-22 -54q-16 -39 4.5 -55.5t55.5 -10t77 37t68 85.5l35 -57q-20 -49 -56 -91t-80 -72.5t-94.5 -49t-99.5 -18.5q-63 0 -103 26.5t-50 79.5 q-59 -49 -119.5 -77.5t-116.5 -28.5q-70 0 -113.5 31.5t-62 87t-11.5 130t44 158.5q88 209 219 307.5t272 98.5zM614 662q-18 29 -59 28q-39 0 -72.5 -15.5t-67.5 -49t-69 -89t-74 -135.5q-31 -59 -48 -111t-19 -91t13 -61.5t50 -22.5t76 20.5t82 57.5q6 27 18 53zM328 1001 q63 88 147 142.5t170 66.5q59 8 81 -13t30 -49t14 -51.5t35 -19.5t55.5 24.5t48.5 43.5q25 27 47 61l68 -65q-39 -51 -90 -94q-43 -37 -101.5 -70t-125.5 -43q-47 -6 -73 2t-39 23.5t-17.5 35t-7.5 36t-9 26.5t-22 8q-27 -4 -52.5 -23.5t-46.5 -42.5q-25 -27 -47 -57z" />
<glyph unicode="&#xe4;" d="M528 799q80 0 121 -58q6 14 9.5 25.5t7.5 15.5h225q-6 -18 -24.5 -63t-43 -103.5t-51.5 -123t-50.5 -122t-40.5 -99.5t-22 -54q-16 -39 4.5 -55.5t55.5 -10t77 37t68 85.5l35 -57q-20 -49 -56 -91t-80 -72.5t-94.5 -49t-99.5 -18.5q-63 0 -103 26.5t-50 79.5 q-59 -49 -119.5 -77.5t-116.5 -28.5q-70 0 -113.5 31.5t-62 87t-11.5 130t44 158.5q88 209 219 307.5t272 98.5zM614 662q-18 29 -59 28q-39 0 -72.5 -15.5t-67.5 -49t-69 -89t-74 -135.5q-31 -59 -48 -111t-19 -91t13 -61.5t50 -22.5t76 20.5t82 57.5q6 27 18 53zM625 1022 q0 -51 -35 -86t-88 -35q-49 0 -86 35t-37 86q0 53 37 88t86 35q53 0 88 -35t35 -88zM932 1022q0 -51 -37 -86t-86 -35q-53 0 -88 35t-35 86q0 53 35 88t88 35q49 0 86 -35t37 -88z" />
<glyph unicode="&#xe5;" d="M528 799q80 0 121 -58q6 14 9.5 25.5t7.5 15.5h225q-6 -18 -24.5 -63t-43 -103.5t-51.5 -123t-50.5 -122t-40.5 -99.5t-22 -54q-16 -39 4.5 -55.5t55.5 -10t77 37t68 85.5l35 -57q-20 -49 -56 -91t-80 -72.5t-94.5 -49t-99.5 -18.5q-63 0 -103 26.5t-50 79.5 q-59 -49 -119.5 -77.5t-116.5 -28.5q-70 0 -113.5 31.5t-62 87t-11.5 130t44 158.5q88 209 219 307.5t272 98.5zM874 1042q0 -41 -16 -77.5t-45 -64.5t-65.5 -44t-79.5 -16t-80 16t-65.5 44t-45 64.5t-16.5 77.5q0 43 16.5 81t45 66t65.5 44t80 16t79.5 -16t65.5 -44t45 -66 t16 -81zM614 662q-18 29 -59 28q-39 0 -72.5 -15.5t-67.5 -49t-69 -89t-74 -135.5q-31 -59 -48 -111t-19 -91t13 -61.5t50 -22.5t76 20.5t82 57.5q6 27 18 53zM793 1042q0 53 -36 89t-89 36t-89 -35.5t-36 -89.5q0 -51 35.5 -86.5t89.5 -35.5q53 0 89 35.5t36 86.5z" />
<glyph unicode="&#xe6;" horiz-adv-x="1179" d="M528 799q80 0 121 -58q8 25 17 41h102l-12 -57q111 74 243 74q84 0 127 -44t48.5 -106.5t-26.5 -133.5t-97 -126q-92 -76 -213 -76h-131q-27 -92 19 -152.5t142 -60.5q43 0 89.5 14.5t88 38t76.5 55.5t58 66l34 -57q-51 -109 -176 -170t-290 -61q-104 0 -172 46t-91 124 q-72 -78 -152.5 -124t-152.5 -46q-70 0 -113.5 31.5t-62 87t-11.5 130t44 158.5q88 209 219 307.5t272 98.5zM614 659q-20 31 -59 31t-72.5 -15.5t-67.5 -49t-69 -89t-74 -135.5q-31 -59 -48 -111t-19 -91t13 -61.5t50 -22.5q45 0 98.5 33.5t106.5 91.5q0 35 7 73.5t24 79.5 q10 31 28 66zM948 707q-20 -8 -48 -37t-56.5 -72t-58 -96t-52.5 -111h72q47 0 80 29t61 88q25 45 39 86t16.5 69.5t-10 42t-43.5 1.5z" />
<glyph unicode="&#xe7;" horiz-adv-x="704" d="M156 -70l41 64q-66 12 -111 49t-67.5 89t-20.5 119.5t31 141.5q80 199 209 302.5t286 103.5q66 0 105 -30t53 -77t5 -105.5t-38 -113.5q-27 -51 -55.5 -84t-55 -52.5t-50 -26.5t-37.5 -7q-57 0 -75 45t7 111q31 76 81 116.5t111 40.5h13.5t11.5 -2q6 41 -11.5 68 t-58.5 27t-79.5 -29t-74.5 -74t-65.5 -101t-50.5 -114q-55 -147 -16 -219t149 -72q43 0 89 14.5t88 38t77 55.5t58 66l34 -57q-47 -102 -161.5 -162.5t-268.5 -66.5l-49 -76q23 -10 44.5 -21.5t41.5 -27.5q49 -37 65.5 -80t8.5 -84t-39 -75t-76 -52t-98 -19.5t-105.5 12 t-101.5 40t-84 65.5l86 137q61 -47 121.5 -63t102.5 -11t55.5 26.5t-17.5 52.5q-29 27 -70.5 44t-87.5 31z" />
<glyph unicode="&#xe8;" horiz-adv-x="704" d="M393 100q43 0 89 14.5t88 38t77 55.5t58 66l34 -57q-51 -109 -176 -170t-291 -61q-86 0 -146 31.5t-93 87t-35 130t31 158.5q78 199 208 302.5t287 103.5q84 0 127 -44t48.5 -106.5t-26.5 -133.5t-98 -126q-92 -76 -213 -76h-131q-27 -92 19.5 -152.5t142.5 -60.5z M698 883l-450 196l125 217l366 -333zM473 707q-20 -8 -48 -37t-56.5 -72t-58 -96t-52.5 -111h72q47 0 79.5 29t61.5 88q25 45 39 86t16 69.5t-10 42t-43 1.5z" />
<glyph unicode="&#xe9;" horiz-adv-x="704" d="M393 100q43 0 89 14.5t88 38t77 55.5t58 66l34 -57q-51 -109 -176 -170t-291 -61q-86 0 -146 31.5t-93 87t-35 130t31 158.5q78 199 208 302.5t287 103.5q84 0 127 -44t48.5 -106.5t-26.5 -133.5t-98 -126q-92 -76 -213 -76h-131q-27 -92 19.5 -152.5t142.5 -60.5z M418 963l366 333l125 -217l-450 -196zM473 707q-20 -8 -48 -37t-56.5 -72t-58 -96t-52.5 -111h72q47 0 79.5 29t61.5 88q25 45 39 86t16 69.5t-10 42t-43 1.5z" />
<glyph unicode="&#xea;" horiz-adv-x="704" d="M393 100q43 0 89 14.5t88 38t77 55.5t58 66l34 -57q-51 -109 -176 -170t-291 -61q-86 0 -146 31.5t-93 87t-35 130t31 158.5q78 199 208 302.5t287 103.5q84 0 127 -44t48.5 -106.5t-26.5 -133.5t-98 -126q-92 -76 -213 -76h-131q-27 -92 19.5 -152.5t142.5 -60.5z M788 1225l54 -295l-246 -2l12 215l-360 -240l-74 101l416 221h198zM473 707q-20 -8 -48 -37t-56.5 -72t-58 -96t-52.5 -111h72q47 0 79.5 29t61.5 88q25 45 39 86t16 69.5t-10 42t-43 1.5z" />
<glyph unicode="&#xeb;" horiz-adv-x="704" d="M393 100q43 0 89 14.5t88 38t77 55.5t58 66l34 -57q-51 -109 -176 -170t-291 -61q-86 0 -146 31.5t-93 87t-35 130t31 158.5q78 199 208 302.5t287 103.5q84 0 127 -44t48.5 -106.5t-26.5 -133.5t-98 -126q-92 -76 -213 -76h-131q-27 -92 19.5 -152.5t142.5 -60.5z M526 1022q0 -51 -34.5 -86t-88.5 -35q-49 0 -85.5 35t-36.5 86q0 53 36.5 88t85.5 35q53 0 88 -35t35 -88zM834 1022q0 -51 -37 -86t-86 -35q-53 0 -88 35t-35 86q0 53 34.5 88t88.5 35q49 0 86 -35t37 -88zM473 707q-20 -8 -48 -37t-56.5 -72t-58 -96t-52.5 -111h72 q47 0 79.5 29t61.5 88q25 45 39 86t16 69.5t-10 42t-43 1.5z" />
<glyph unicode="&#xec;" horiz-adv-x="405" d="M440 217q-20 -49 -56 -91t-80 -72.5t-94 -49t-99 -18.5q-100 0 -139.5 65.5t14.5 194.5q10 25 31.5 75t44 105t42 104.5t29.5 71.5q16 41 4 66.5t-59 25.5h-21l43 88q16 4 35 9q16 4 35.5 6t40.5 2q117 0 145.5 -64.5t-26.5 -199.5q-12 -31 -34 -84.5t-44 -106.5 q-25 -61 -51 -127q-16 -41 4 -57.5t56 -9t77 38t68 85.5zM477 883l-450 196l125 217l366 -333z" />
<glyph unicode="&#xed;" horiz-adv-x="405" d="M440 217q-20 -49 -56 -91t-80 -72.5t-94 -49t-99 -18.5q-100 0 -139.5 65.5t14.5 194.5q10 25 31.5 75t44 105t42 104.5t29.5 71.5q16 41 4 66.5t-59 25.5h-21l43 88q16 4 35 9q16 4 35.5 6t40.5 2q117 0 145.5 -64.5t-26.5 -199.5q-12 -31 -34 -84.5t-44 -106.5 q-25 -61 -51 -127q-16 -41 4 -57.5t56 -9t77 38t68 85.5zM123 963l366 333l125 -217l-450 -196z" />
<glyph unicode="&#xee;" horiz-adv-x="405" d="M440 217q-20 -49 -56 -91t-80 -72.5t-94 -49t-99 -18.5q-100 0 -139.5 65.5t14.5 194.5q10 25 31.5 75t44 105t42 104.5t29.5 71.5q16 41 4 66.5t-59 25.5h-21l43 88q16 4 35 9q16 4 35.5 6t40.5 2q117 0 145.5 -64.5t-26.5 -199.5q-12 -31 -34 -84.5t-44 -106.5 q-25 -61 -51 -127q-16 -41 4 -57.5t56 -9t77 38t68 85.5zM590 1225l47 -305l-225 -2l12 223l-332 -248l-67 104l383 228h182z" />
<glyph unicode="&#xef;" horiz-adv-x="405" d="M440 217q-20 -49 -56 -91t-80 -72.5t-94 -49t-99 -18.5q-100 0 -139.5 65.5t14.5 194.5q10 25 31.5 75t44 105t42 104.5t29.5 71.5q16 41 4 66.5t-59 25.5h-21l43 88q16 4 35 9q16 4 35.5 6t40.5 2q117 0 145.5 -64.5t-26.5 -199.5q-12 -31 -34 -84.5t-44 -106.5 q-25 -61 -51 -127q-16 -41 4 -57.5t56 -9t77 38t68 85.5zM313 1020q0 -43 -29.5 -71.5t-74.5 -28.5q-41 0 -72 28.5t-31 71.5q0 45 31 74.5t72 29.5q45 0 74.5 -29.5t29.5 -74.5zM571 1020q0 -43 -30.5 -71.5t-71.5 -28.5q-45 0 -74.5 28.5t-29.5 71.5q0 45 29.5 74.5 t74.5 29.5q41 0 71.5 -29.5t30.5 -74.5z" />
<glyph unicode="&#xf0;" horiz-adv-x="759" d="M791 954q18 -78 9 -180t-41 -209.5t-85 -212t-124 -185.5t-156 -131t-181 -50q-76 0 -126 32.5t-73.5 88t-19.5 129t41 157.5q68 145 150.5 231.5t162.5 126.5t144.5 44t95.5 -13q4 20 8 50t4 63l-197 -61l23 114l143 45q-25 25 -63 25h-21l21 88q14 2 33 6q16 4 33.5 6 t39.5 2q47 0 82 -18.5t58 -50.5l161 51l-22 -115zM479 391q18 47 35.5 100.5t32.5 100.5q16 53 31 110q-10 4 -23 9q-27 8 -59 2q-25 -6 -54.5 -33t-60.5 -70t-60.5 -99t-54.5 -120q-25 -61 -41 -117.5t-19 -99.5t6 -68.5t34 -25.5t55.5 25.5t61 68.5t61 99.5t55.5 117.5z " />
<glyph unicode="&#xf1;" horiz-adv-x="790" d="M184 180q-16 -43 -3.5 -67.5t59.5 -24.5h20l-41 -88q-16 -4 -35 -8q-31 -6 -75 -6q-117 0 -147 63.5t26 198.5l145 354q18 41 6 66.5t-59 25.5h-21l41 88q16 4 35 9q16 4 35.5 6t40.5 2q139 0 154 -97q49 45 108 71t119 26q100 0 139 -65.5t-14 -194.5q-10 -27 -28.5 -73 t-39 -95t-38 -92t-25.5 -62q-16 -39 4 -55.5t56 -10t77 37t68 85.5l34 -57q-20 -49 -56 -91t-80 -72.5t-94 -49t-99 -18.5t-85 16t-54.5 49t-16.5 82t29 113l133 319q12 31 1 48.5t-36 18.5t-58.5 -12.5t-64.5 -44.5q-4 -10 -7 -20t-7 -20q-12 -33 -35 -86.5t-44.5 -107.5 t-41 -99.5t-25.5 -61.5zM225 1001q63 88 147.5 142.5t170.5 66.5q59 8 80.5 -13t30 -49t14.5 -51.5t34 -19.5q29 4 55.5 24.5t49.5 43.5q25 27 47 61l68 -65q-39 -51 -91 -94q-43 -37 -101 -70t-126 -43q-47 -6 -72.5 2t-39 23.5t-17.5 35t-7 36t-9 26.5t-23 8 q-27 -4 -52.5 -23.5t-45.5 -42.5q-25 -27 -47 -57z" />
<glyph unicode="&#xf2;" horiz-adv-x="745" d="M526 799q74 0 124 -32t72.5 -87t18.5 -129t-36 -158q-37 -96 -90.5 -171t-118 -128t-137 -80.5t-150.5 -27.5q-76 0 -125 31.5t-71.5 87t-17.5 130t38 158.5q78 195 205.5 300.5t287.5 105.5zM475 391q25 63 40 120.5t19.5 101.5t-4 71t-32.5 27q-25 0 -55.5 -27 t-62.5 -71t-62.5 -101t-55.5 -121q-25 -61 -41 -117.5t-19 -99.5t7 -68.5t35 -25.5t54.5 25.5t60 68.5t61 99.5t55.5 117.5zM715 883l-451 196l125 217l367 -333z" />
<glyph unicode="&#xf3;" horiz-adv-x="745" d="M526 799q74 0 124 -32t72.5 -87t18.5 -129t-36 -158q-37 -96 -90.5 -171t-118 -128t-137 -80.5t-150.5 -27.5q-76 0 -125 31.5t-71.5 87t-17.5 130t38 158.5q78 195 205.5 300.5t287.5 105.5zM475 391q25 63 40 120.5t19.5 101.5t-4 71t-32.5 27q-25 0 -55.5 -27 t-62.5 -71t-62.5 -101t-55.5 -121q-25 -61 -41 -117.5t-19 -99.5t7 -68.5t35 -25.5t54.5 25.5t60 68.5t61 99.5t55.5 117.5zM379 963l366 333l125 -217l-450 -196z" />
<glyph unicode="&#xf4;" horiz-adv-x="745" d="M526 799q74 0 124 -32t72.5 -87t18.5 -129t-36 -158q-37 -96 -90.5 -171t-118 -128t-137 -80.5t-150.5 -27.5q-76 0 -125 31.5t-71.5 87t-17.5 130t38 158.5q78 195 205.5 300.5t287.5 105.5zM475 391q25 63 40 120.5t19.5 101.5t-4 71t-32.5 27q-25 0 -55.5 -27 t-62.5 -71t-62.5 -101t-55.5 -121q-25 -61 -41 -117.5t-19 -99.5t7 -68.5t35 -25.5t54.5 25.5t60 68.5t61 99.5t55.5 117.5zM883 1225l53 -295l-246 -2l12 215l-360 -240l-74 101l416 221h199z" />
<glyph unicode="&#xf5;" horiz-adv-x="745" d="M526 799q74 0 124 -32t72.5 -87t18.5 -129t-36 -158q-37 -96 -90.5 -171t-118 -128t-137 -80.5t-150.5 -27.5q-76 0 -125 31.5t-71.5 87t-17.5 130t38 158.5q78 195 205.5 300.5t287.5 105.5zM475 391q25 63 40 120.5t19.5 101.5t-4 71t-32.5 27q-25 0 -55.5 -27 t-62.5 -71t-62.5 -101t-55.5 -121q-25 -61 -41 -117.5t-19 -99.5t7 -68.5t35 -25.5t54.5 25.5t60 68.5t61 99.5t55.5 117.5zM289 1001q63 88 147 142.5t170 66.5q59 8 81 -13t30 -49t14 -51.5t35 -19.5t55.5 24.5t48.5 43.5q25 27 48 61l67 -65q-39 -51 -90 -94 q-43 -37 -101.5 -70t-125.5 -43q-47 -6 -73 2t-39 23.5t-17 35t-7.5 36t-9.5 26.5t-22 8q-27 -4 -52.5 -23.5t-46.5 -42.5q-25 -27 -47 -57z" />
<glyph unicode="&#xf6;" horiz-adv-x="745" d="M526 799q74 0 124 -32t72.5 -87t18.5 -129t-36 -158q-37 -96 -90.5 -171t-118 -128t-137 -80.5t-150.5 -27.5q-76 0 -125 31.5t-71.5 87t-17.5 130t38 158.5q78 195 205.5 300.5t287.5 105.5zM475 391q25 63 40 120.5t19.5 101.5t-4 71t-32.5 27q-25 0 -55.5 -27 t-62.5 -71t-62.5 -101t-55.5 -121q-25 -61 -41 -117.5t-19 -99.5t7 -68.5t35 -25.5t54.5 25.5t60 68.5t61 99.5t55.5 117.5zM563 1022q0 -51 -34.5 -86t-88.5 -35q-49 0 -86 35t-37 86q0 53 37 88t86 35q53 0 88 -35t35 -88zM870 1022q0 -51 -36.5 -86t-85.5 -35 q-53 0 -88 35t-35 86q0 53 34.5 88t88.5 35q49 0 85.5 -35t36.5 -88z" />
<glyph unicode="&#xf7;" horiz-adv-x="1013" d="M524 121q0 -55 -40 -95t-97 -40t-97 40t-40 95q0 57 40 97t97 40t97 -40t40 -97zM750 653q0 -55 -40 -95t-98 -40q-57 0 -97 40t-40 95q0 57 40 97.5t97 40.5t97.5 -40.5t40.5 -97.5zM252 469h577l-59 -141h-577z" />
<glyph unicode="&#xf8;" horiz-adv-x="745" d="M526 799q41 0 75 -11.5t61 -29.5l53 53h127l-123 -125q27 -55 23.5 -131t-37.5 -162q-37 -96 -90.5 -171t-118 -128t-137 -80.5t-150.5 -27.5q-86 0 -139 41l-31 -31h-125l100 102q-23 55 -19.5 131t38.5 164q78 195 205.5 300.5t287.5 105.5zM475 391q8 18 14.5 38 t12.5 38l-301 -305q-4 -82 43 -82q25 0 54.5 25.5t60 68.5t61 99.5t55.5 117.5zM262 391q-14 -33 -24 -65l297 303q2 37 -6.5 59.5t-30.5 22.5q-25 0 -55.5 -27t-62.5 -71t-62.5 -101.5t-55.5 -120.5z" />
<glyph unicode="&#xf9;" horiz-adv-x="798" d="M594 217q-16 -39 4 -55.5t56 -10t77 37t68 85.5l35 -57q-20 -49 -56.5 -91t-80.5 -72.5t-94 -49t-99 -18.5q-63 0 -102.5 26.5t-49.5 79.5q-51 -49 -115.5 -77.5t-125.5 -28.5q-49 0 -85 16t-53.5 49t-15.5 82t29 113q10 25 31.5 75t44 105t42 104.5t29.5 71.5 q18 41 6 66.5t-59 25.5h-21l41 88q16 4 35 9q16 4 35.5 6t42.5 2q117 0 145.5 -64.5t-28.5 -199.5q-12 -31 -34 -84.5t-44 -106.5q-25 -61 -51 -127q-12 -35 1 -52.5t39.5 -17.5t61.5 17.5t66 52.5q2 8 4 14.5t6 14.5l221 536h227zM719 883l-451 196l125 217l367 -333z" />
<glyph unicode="&#xfa;" horiz-adv-x="798" d="M594 217q-16 -39 4 -55.5t56 -10t77 37t68 85.5l35 -57q-20 -49 -56.5 -91t-80.5 -72.5t-94 -49t-99 -18.5q-63 0 -102.5 26.5t-49.5 79.5q-51 -49 -115.5 -77.5t-125.5 -28.5q-49 0 -85 16t-53.5 49t-15.5 82t29 113q10 25 31.5 75t44 105t42 104.5t29.5 71.5 q18 41 6 66.5t-59 25.5h-21l41 88q16 4 35 9q16 4 35.5 6t42.5 2q117 0 145.5 -64.5t-28.5 -199.5q-12 -31 -34 -84.5t-44 -106.5q-25 -61 -51 -127q-12 -35 1 -52.5t39.5 -17.5t61.5 17.5t66 52.5q2 8 4 14.5t6 14.5l221 536h227zM381 963l367 333l124 -217l-450 -196z" />
<glyph unicode="&#xfb;" horiz-adv-x="798" d="M594 217q-16 -39 4 -55.5t56 -10t77 37t68 85.5l35 -57q-20 -49 -56.5 -91t-80.5 -72.5t-94 -49t-99 -18.5q-63 0 -102.5 26.5t-49.5 79.5q-51 -49 -115.5 -77.5t-125.5 -28.5q-49 0 -85 16t-53.5 49t-15.5 82t29 113q10 25 31.5 75t44 105t42 104.5t29.5 71.5 q18 41 6 66.5t-59 25.5h-21l41 88q16 4 35 9q16 4 35.5 6t42.5 2q117 0 145.5 -64.5t-28.5 -199.5q-12 -31 -34 -84.5t-44 -106.5q-25 -61 -51 -127q-12 -35 1 -52.5t39.5 -17.5t61.5 17.5t66 52.5q2 8 4 14.5t6 14.5l221 536h227zM817 1225l53 -295l-245 -2l12 215 l-361 -240l-73 101l415 221h199z" />
<glyph unicode="&#xfc;" horiz-adv-x="798" d="M594 217q-16 -39 4 -55.5t56 -10t77 37t68 85.5l35 -57q-20 -49 -56.5 -91t-80.5 -72.5t-94 -49t-99 -18.5q-63 0 -102.5 26.5t-49.5 79.5q-51 -49 -115.5 -77.5t-125.5 -28.5q-49 0 -85 16t-53.5 49t-15.5 82t29 113q10 25 31.5 75t44 105t42 104.5t29.5 71.5 q18 41 6 66.5t-59 25.5h-21l41 88q16 4 35 9q16 4 35.5 6t42.5 2q117 0 145.5 -64.5t-28.5 -199.5q-12 -31 -34 -84.5t-44 -106.5q-25 -61 -51 -127q-12 -35 1 -52.5t39.5 -17.5t61.5 17.5t66 52.5q2 8 4 14.5t6 14.5l221 536h227zM518 1022q0 -51 -34.5 -86t-88.5 -35 q-49 0 -86 35t-37 86q0 53 37 88t86 35q53 0 88 -35t35 -88zM825 1022q0 -51 -36.5 -86t-86.5 -35q-53 0 -87.5 35t-34.5 86q0 53 34.5 88t87.5 35q49 0 86 -35t37 -88z" />
<glyph unicode="&#xfd;" horiz-adv-x="765" d="M827 782q-16 -39 -37.5 -90t-45 -109.5t-48 -121t-49.5 -121.5q-55 -139 -119 -291q-78 -199 -206.5 -303t-286.5 -104q-66 0 -106 30.5t-54 77.5t-5 104.5t40 112.5q29 47 65 82q-18 35 -17 83t28 114q10 25 31.5 75t45 105t43 104.5t27.5 71.5q18 41 6 66.5t-59 25.5 h-21l43 88q16 4 35 9q16 4 34.5 6t41.5 2q117 0 146.5 -64.5t-27.5 -199.5q-12 -31 -34 -84.5t-44 -106.5q-25 -61 -51 -127q-12 -35 0 -52.5t37.5 -18.5t60.5 15.5t66 51.5l233 569h227zM401 963l367 333l125 -217l-451 -196zM113 -14q-45 0 -78 12q-27 -23 -51.5 -59.5 t-36.5 -96.5q-12 -51 13.5 -80.5t66.5 -29.5q39 0 78.5 28.5t75.5 73.5t67 101.5t51 111.5q-45 -29 -92 -45t-94 -16z" />
<glyph unicode="&#xfe;" horiz-adv-x="800" d="M248 -14q-78 0 -119 53q-33 -82 -55.5 -136.5t-26.5 -64.5q-18 -41 -5 -66.5t58 -25.5h21l-43 -88q-16 -4 -35 -8q-16 -4 -35.5 -6t-40.5 -2q-117 0 -144.5 64.5t27.5 199.5q8 20 40 99t76 186.5t93.5 228.5t92.5 227.5t73.5 182t38.5 94.5q18 41 5 66.5t-60 25.5h-19 l41 88q16 4 35 8q16 4 36 6t40 2q117 0 146.5 -64.5t-25.5 -199.5l-51 -121q94 63 182 64q70 0 114 -32t63.5 -87t11 -129t-43.5 -158q-90 -211 -220 -309t-271 -98zM162 121q20 -25 59 -25q37 0 71 14.5t67.5 48.5t68.5 88t76 134q29 59 46 112.5t19 92.5t-13 61.5 t-50 22.5q-66 0 -150 -72z" />
<glyph unicode="&#xff;" horiz-adv-x="765" d="M827 782q-16 -39 -37.5 -90t-45 -109.5t-48 -121t-49.5 -121.5q-55 -139 -119 -291q-78 -199 -206.5 -303t-286.5 -104q-66 0 -106 30.5t-54 77.5t-5 104.5t40 112.5q29 47 65 82q-18 35 -17 83t28 114q10 25 31.5 75t45 105t43 104.5t27.5 71.5q18 41 6 66.5t-59 25.5 h-21l43 88q16 4 35 9q16 4 34.5 6t41.5 2q117 0 146.5 -64.5t-27.5 -199.5q-12 -31 -34 -84.5t-44 -106.5q-25 -61 -51 -127q-12 -35 0 -52.5t37.5 -18.5t60.5 15.5t66 51.5l233 569h227zM113 -14q-45 0 -78 12q-27 -23 -51.5 -59.5t-36.5 -96.5q-12 -51 13.5 -80.5 t66.5 -29.5q39 0 78.5 28.5t75.5 73.5t67 101.5t51 111.5q-45 -29 -92 -45t-94 -16zM520 1022q0 -51 -34.5 -86t-88.5 -35q-49 0 -86 35t-37 86q0 53 37 88t86 35q53 0 88 -35t35 -88zM827 1022q0 -51 -36.5 -86t-85.5 -35q-53 0 -88 35t-35 86q0 53 34.5 88t88.5 35 q49 0 85.5 -35t36.5 -88z" />
<glyph unicode="&#x152;" horiz-adv-x="1359" d="M1528 899q-59 -35 -112.5 -24.5t-106 37t-105.5 55t-108 28.5q-33 0 -80 -10t-103 -29q35 -57 41.5 -143t-24.5 -201h276l-37 -104h-272q-29 -78 -62.5 -147.5t-76.5 -131.5q49 12 100 13q35 0 74 -18.5t79 -39t83 -38t87 -13.5t89 35t90 104l35 -57 q-63 -111 -148.5 -172t-171.5 -61q-53 0 -102 26.5t-91 58l-78 58.5t-65 27q-10 0 -27.5 -5.5t-37.5 -13.5q-74 -74 -169 -116t-216 -42q-90 0 -153.5 33t-97.5 95.5t-33 156.5t42 217q39 115 89 221.5t123 189.5t175.5 133t245.5 50q88 0 151 -35q66 18 136.5 26.5 t165.5 8.5q41 0 92 -6t111.5 -10t127 -2t140.5 18zM672 522q35 111 58.5 203t21.5 158q-59 -35 -105 -80l-41 43l101 139q-10 4 -19.5 6t-21.5 2q-55 0 -108.5 -42t-101.5 -108.5t-89 -150.5t-70 -168q-33 -96 -56.5 -180t-26.5 -146.5t17.5 -98.5t73.5 -36q59 0 113.5 41 t100.5 105.5t85 146.5t68 166z" />
<glyph unicode="&#x153;" horiz-adv-x="1155" d="M844 100q43 0 89 14.5t88 38t77 55.5t57 66l35 -57q-51 -109 -176 -170t-291 -61q-80 0 -138.5 27.5t-92.5 76.5q-129 -104 -283 -104q-76 0 -125 31.5t-71.5 87t-17.5 130t38 158.5q78 195 206 300.5t287 105.5q63 0 108.5 -24.5t72.5 -65.5q121 90 268 90q84 0 127 -44 t48 -106.5t-26.5 -133.5t-97.5 -126q-92 -76 -213 -76h-131q-27 -92 19.5 -152.5t142.5 -60.5zM475 391q25 63 40 120.5t19.5 101.5t-4 71t-32.5 27q-25 0 -55.5 -27t-62.5 -71t-62.5 -101t-55.5 -121q-25 -61 -41 -117.5t-19 -99.5t7 -68.5t35 -25.5t54.5 25.5t60 68.5 t61 99.5t55.5 117.5zM924 707q-20 -8 -48 -37t-56.5 -72t-58.5 -96t-52 -111h71q47 0 80 29t62 88q25 45 39 86t16 69.5t-10 42t-43 1.5z" />
<glyph unicode="&#x178;" horiz-adv-x="659" d="M109 1073q117 0 181 -64.5t83 -201.5l28 -207q78 61 132.5 139t72.5 144q18 59 0 83.5t-84 8.5l31 82q16 2 35 6q16 4 34.5 6t41.5 2q47 0 85.5 -14.5t61.5 -41t26 -64.5t-18 -85q-47 -104 -152.5 -195t-236.5 -153l-139 -340q-16 -43 -4 -68.5t59 -25.5h19l-41 -88 q-16 -4 -35 -8q-16 -4 -36 -6t-40 -2q-119 0 -147.5 64.5t26.5 201.5l98 243l-53 388q-4 41 -30.5 66.5t-73.5 25.5h-21l-8 88q14 4 31 8q14 4 32.5 6t41.5 2zM500 1255q0 -51 -35 -85.5t-88 -34.5q-49 0 -86 34.5t-37 85.5q0 53 37 88t86 35q53 0 88 -35t35 -88zM807 1255 q0 -51 -37 -85.5t-86 -34.5q-53 0 -88 34.5t-35 85.5q0 53 35 88t88 35q49 0 86 -35t37 -88z" />
<glyph unicode="&#x2c6;" horiz-adv-x="808" d="M778 1225l53 -295l-245 -2l12 215l-360 -240l-74 101l416 221h198z" />
<glyph unicode="&#x2dc;" horiz-adv-x="944" d="M205 1001q63 88 147 142.5t170 66.5q59 8 81 -13t30 -49t14 -51.5t35 -19.5t55.5 24.5t48.5 43.5q25 27 48 61l67 -65q-39 -51 -90 -94q-43 -37 -101.5 -70t-125.5 -43q-47 -6 -73 2t-39 23.5t-17 35t-7.5 36t-9.5 26.5t-22 8q-27 -4 -52.5 -23.5t-46.5 -42.5 q-25 -27 -47 -57z" />
<glyph unicode="&#x2000;" horiz-adv-x="785" />
<glyph unicode="&#x2001;" horiz-adv-x="1571" />
<glyph unicode="&#x2002;" horiz-adv-x="785" />
<glyph unicode="&#x2003;" horiz-adv-x="1571" />
<glyph unicode="&#x2004;" horiz-adv-x="523" />
<glyph unicode="&#x2005;" horiz-adv-x="392" />
<glyph unicode="&#x2006;" horiz-adv-x="261" />
<glyph unicode="&#x2007;" horiz-adv-x="261" />
<glyph unicode="&#x2008;" horiz-adv-x="196" />
<glyph unicode="&#x2009;" horiz-adv-x="314" />
<glyph unicode="&#x200a;" horiz-adv-x="87" />
<glyph unicode="&#x2010;" horiz-adv-x="552" d="M162 457h332l-60 -142h-332z" />
<glyph unicode="&#x2011;" horiz-adv-x="552" d="M162 457h332l-60 -142h-332z" />
<glyph unicode="&#x2012;" horiz-adv-x="552" d="M162 457h332l-60 -142h-332z" />
<glyph unicode="&#x2013;" horiz-adv-x="1085" d="M162 457h782l-59 -142h-783z" />
<glyph unicode="&#x2014;" horiz-adv-x="1716" d="M162 457h1397l-60 -142h-1397z" />
<glyph unicode="&#x2018;" horiz-adv-x="528" d="M494 844q16 -25 16 -66q0 -57 -40 -97t-97 -40t-97 40t-40 97q0 47 21.5 81t57 66.5t82.5 72.5t99 100l71 -29z" />
<glyph unicode="&#x2019;" horiz-adv-x="528" d="M289 895q-16 25 -17 66q0 57 40 97t98 40q57 0 97 -40t40 -97q0 -47 -21.5 -81t-57.5 -67t-83 -73t-98 -99l-72 29z" />
<glyph unicode="&#x201a;" horiz-adv-x="528" d="M84 76q-16 25 -16 65q0 57 39.5 97.5t97.5 40.5q57 0 97 -40t40 -98q0 -47 -21.5 -80.5t-57.5 -66.5t-83 -73t-98 -99l-72 28z" />
<glyph unicode="&#x201c;" horiz-adv-x="765" d="M494 844v-2q12 31 37.5 56.5t58.5 53t71.5 62.5t79.5 84l72 -29l-74 -225q16 -25 17 -66q0 -57 -40 -97t-98 -40q-41 0 -73.5 20.5t-48.5 55.5q-16 -35 -49 -55.5t-74 -20.5q-57 0 -97 40t-40 97q0 47 21.5 81t57 66.5t82.5 72.5t99 100l71 -29z" />
<glyph unicode="&#x201d;" horiz-adv-x="765" d="M535 895h-3q-12 -31 -36.5 -55.5t-57 -53t-71.5 -62.5t-80 -83l-72 29l74 225q-16 25 -17 66q0 57 40 97t98 40q41 0 73.5 -21.5t48.5 -56.5q16 35 49 56.5t74 21.5q57 0 97.5 -40t40.5 -97q0 -47 -21.5 -81t-57.5 -67t-83 -73t-99 -99l-71 29z" />
<glyph unicode="&#x201e;" horiz-adv-x="765" d="M330 76h-2q-12 -29 -37 -54.5t-57.5 -53t-71.5 -62.5t-80 -84l-72 28l74 226q-16 25 -16 65q0 57 39.5 97.5t97.5 40.5q41 0 73.5 -21.5t49.5 -56.5q16 35 49 56.5t74 21.5q57 0 97 -40t40 -98q0 -47 -21.5 -80.5t-57.5 -66.5t-83 -73t-98 -99l-72 28z" />
<glyph unicode="&#x2022;" horiz-adv-x="946" d="M811 674q0 -47 -18.5 -88t-49 -72t-72.5 -48t-89 -17t-89 17t-73 48t-49.5 72t-18.5 88t18.5 89t49.5 72.5t73 49t89 18.5t89 -18.5t72.5 -49t49 -72.5t18.5 -89z" />
<glyph unicode="&#x2026;" horiz-adv-x="1245" d="M342 121q0 -55 -40 -95t-97 -40t-97 40t-40 95q0 57 39.5 97t97.5 40q57 0 97 -40t40 -97zM709 121q0 -55 -40 -95t-98 -40q-57 0 -97 40t-40 95q0 57 40 97t97 40t97.5 -40t40.5 -97zM1075 121q0 -55 -40 -95t-97 -40t-97 40t-40 95q0 57 40 97t97 40t97 -40t40 -97z " />
<glyph unicode="&#x202f;" horiz-adv-x="314" />
<glyph unicode="&#x2039;" horiz-adv-x="808" d="M233 563l603 289l47 -117l-553 -260l237 -274l-131 -150l-284 377z" />
<glyph unicode="&#x203a;" horiz-adv-x="808" d="M678 340l-602 -289l-47 117l553 260l-238 274l131 150l285 -377z" />
<glyph unicode="&#x205f;" horiz-adv-x="392" />
<glyph unicode="&#x20ac;" horiz-adv-x="868" d="M123 598h47q43 113 106.5 201t140.5 148.5t165 92t180 31.5q72 0 118 -29.5t65.5 -76.5t14 -105.5t-35.5 -114.5q-27 -51 -55.5 -84.5t-56.5 -53t-50.5 -28t-36.5 -8.5q-59 0 -76.5 47.5t8.5 112.5q29 76 80 117t113 41q18 0 27 -2q6 14 4 30.5t-13.5 31t-36 23.5 t-63.5 9q-66 0 -121 -31.5t-101 -84t-84 -122t-67 -145.5h199l-29 -72h-194l-19 -59h197l-31 -72h-184q-14 -68 -15.5 -124t16 -96t55.5 -61.5t102 -21.5q92 0 165.5 52.5t118.5 123.5l35 -57q-31 -49 -73 -91t-96 -75t-122.5 -51.5t-157.5 -18.5q-158 0 -220 109t-27 311 h-68l29 72h55l8 33l6 26h-53z" />
<glyph unicode="&#x2122;" horiz-adv-x="1460" d="M1311 858l-262 -334q-27 -35 -52.5 -48t-46 -9t-32 28.5t-9.5 67.5l9 289l-138 -336q-31 -78 47 -57l-22 -51q-10 -4 -23 -7q-25 -6 -49 -4q-25 4 -34 25.5t1 50.5l199 483q12 33 -29 52.5t-100 23.5l-209 -510q-23 -59 33 -59h12l-24 -55q-10 -4 -23 -7q-10 -2 -23.5 -3 t-25.5 -1q-74 0 -91.5 40t17.5 126l185 461q-59 -16 -118 -47t-104 -76l-26 29l102 133q119 6 227.5 18.5t189.5 6t127 -43t44 -129.5q0 -14 -1 -46.5t-3 -74.5t-3 -88.5t-3 -84.5l303 385q-10 12 -35 12h-12l24 55q10 2 23 4q10 2 22.5 4t26.5 2q143 0 74 -168l-150 -370 q-10 -25 2 -36t35 -7t48.5 23.5t41.5 54.5l23 -35q-25 -61 -85.5 -104.5t-121.5 -43.5q-63 0 -88 42t8 122z" />
<glyph unicode="&#x25fc;" horiz-adv-x="798" d="M0 799h799v-799h-799v799z" />
<glyph unicode="&#xfb02;" horiz-adv-x="1095" d="M1130 217q-20 -49 -56 -91t-80 -72.5t-94 -49t-99 -18.5t-85 16t-54.5 49t-16.5 82t29 113l12 28q-53 -37 -120.5 -60.5t-147.5 -31.5q-10 -35 -22.5 -74.5t-33.5 -80.5q-90 -188 -190 -286.5t-199 -98.5q-98 0 -138 66.5t13 193.5l330 811q80 201 209 304t287 103 q66 0 104.5 -29.5t53 -75.5t5 -104.5t-37.5 -113.5q-27 -51 -55.5 -85t-55 -53.5t-50.5 -27.5t-38 -8q-57 0 -74.5 47t6.5 112q31 74 81.5 116t111.5 42q10 0 27 -4q4 41 -13.5 67.5t-58.5 26.5t-80 -27.5t-75 -72.5t-65.5 -102.5t-49.5 -114.5l-111 -269q125 -10 131 -153 q117 4 205 55t129 117q29 70 60.5 145.5t58 142t46 113.5t25.5 62q18 41 6 66.5t-59 25.5h-20l43 88q16 2 34 6q16 4 35 6t41 2q117 0 145.5 -63.5t-28.5 -200.5q-6 -16 -20.5 -51t-34 -83t-43 -104.5t-45.5 -111.5q-53 -131 -117 -289q-16 -41 4 -57.5t55 -9t76 38t70 85.5 zM266 45q41 82 57.5 141.5t13.5 97.5t-23.5 55t-51.5 15l-196 -479q-16 -39 -6 -57.5t38.5 -3t72.5 71t95 159.5z" />
</font>
</defs>
</svg>
